<?xml version="1.0" encoding="utf-8"?>
<!-- Generator: Adobe Illustrator 17.1.0, SVG Export Plug-In . SVG Version: 6.00 Build 0)  -->
<!DOCTYPE svg PUBLIC "-//W3C//DTD SVG 1.1//EN" "http://www.w3.org/Graphics/SVG/1.1/DTD/svg11.dtd">
<svg version="1.1" id="Layer_1" xmlns="http://www.w3.org/2000/svg" xmlns:xlink="http://www.w3.org/1999/xlink" x="0px" y="0px"
	 preserveAspectRatio="none" viewBox="23.641 5.584 552.519 588.349" enable-background="new 23.641 5.584 552.519 588.349" xml:space="preserve">
<g>
	<g>
		
			<polygon fill-rule="evenodd" clip-rule="evenodd" fill="none" stroke="#666666" stroke-width="1.9199" stroke-miterlimit="22.9256" points="
			52.062,11.791 76.548,11.791 99.595,14.226 155.616,12.803 162.918,15.033 171.106,14.97 194.29,33.493 184.78,14.864 
			188.144,14.837 199.537,34.993 195.916,14.777 200.767,14.738 215.004,9.027 243.857,12.854 282.08,11.846 284.505,29.188 
			289.447,11.74 306.883,11.492 315.143,6.846 384.475,11.574 400.958,6.554 420.747,8.019 405.163,37.431 434.884,14.618 
			437.622,9.267 473.272,11.907 487.143,9.679 505.125,11.486 546.577,11.791 571.035,36.251 575.157,60.514 569.842,70.259 
			569.885,80.996 540.623,81.268 569.929,91.45 569.929,91.45 569.956,98.36 573.736,108.481 573.22,167.686 569.791,177.426 
			569.952,208.905 573.736,217.523 568.956,418.327 540.623,438.174 567.798,432.32 567.747,432.952 567.826,436.104 
			528.635,445.102 568.33,455.824 568.948,480 571.885,518.55 571.051,562.132 546.577,586.593 505.684,586.593 475.705,592.963 
			421.692,587.559 420.335,559.776 414.869,586.878 412.004,586.593 374.531,590.715 336.718,589.317 313.167,560.151 
			312.08,588.408 308.568,588.279 309.983,566.148 298.075,587.892 262.866,586.593 252.277,592.587 198.318,586.593 
			165.343,586.593 157.758,585.874 148.758,569.142 148.085,584.956 144.596,584.626 145.572,564.646 135.645,583.775 
			121.874,582.47 85.903,586.593 52.062,586.593 27.602,562.13 29.69,516.711 25.291,509.607 29.858,495.728 29.24,485.083 
			76.635,459.155 28.708,475.921 28.545,473.114 60.149,462.153 28.094,465.344 26.226,433.156 29.525,425.276 30,391.547 
			24.603,174.229 27.602,162.238 27.602,136.943 25.165,119.706 27.602,91.978 28.695,88.536 61.092,89.692 31.22,79.099 
			27.602,66.121 27.602,36.251 		"/>
		<path fill-rule="evenodd" clip-rule="evenodd" fill="#959595" d="M52.062,11.791h24.486l23.047,2.435l56.022-1.423l7.302,2.23
			l8.187-0.063l23.185,18.523l-9.511-18.629l3.364-0.027l11.393,20.157l-3.621-20.216l4.851-0.04l14.237-5.711l28.853,3.827
			l38.223-1.008l2.426,17.341l4.941-17.448l17.436-0.248l8.26-4.646l69.332,4.729l16.484-5.02l19.789,1.464l-15.584,29.412
			l29.72-22.813l2.738-5.351l35.65,2.64l13.871-2.228l17.982,1.807l41.452,0.305l24.458,24.46l4.122,24.263l-5.315,9.745
			l0.043,10.737l-29.262,0.272l29.305,10.182l0,0l0.027,6.91l3.78,10.121l-0.516,59.205l-3.429,9.741l0.161,31.478l3.784,8.619
			l-4.78,200.803l-28.333,19.848l27.175-5.855l-0.051,0.632l0.079,3.152l-39.192,8.999l39.696,10.721L568.948,480l2.937,38.55
			l-0.835,43.582l-24.474,24.46h-40.893l-29.979,6.37l-54.013-5.404l-1.357-27.783l-5.467,27.102l-2.865-0.285l-37.473,4.122
			l-37.814-1.398l-23.551-29.165l-1.087,28.256l-3.512-0.128l1.415-22.131l-11.908,21.743l-35.209-1.299l-10.589,5.994
			l-53.958-5.994h-32.975l-7.585-0.719l-9.001-16.732l-0.673,15.814l-3.489-0.331l0.977-19.98l-9.928,19.129l-13.771-1.305
			l-35.971,4.122H52.062l-24.46-24.462l2.088-45.419l-4.4-7.105l4.567-13.879l-0.618-10.644l47.395-25.929l-47.927,16.767
			l-0.163-2.807l31.604-10.962l-32.055,3.191l-1.868-32.187l3.299-7.88L30,391.547l-5.396-217.318l2.998-11.991v-25.295
			l-2.437-17.237l2.437-27.728l1.093-3.442l32.398,1.156L31.22,79.099l-3.618-12.977v-29.87L52.062,11.791z"/>
	</g>
	<polygon fill-rule="evenodd" clip-rule="evenodd" fill="#B3B3B3" points="62.104,22.571 85.661,22.571 107.828,24.886 
		161.717,23.534 168.743,25.656 184.329,25.534 194.29,33.493 190.205,25.49 194.149,25.459 199.537,34.993 197.824,25.43 
		205.152,25.374 218.846,19.947 246.599,23.583 283.584,22.605 284.505,29.188 286.381,22.565 306.007,22.288 313.952,17.874 
		380.644,22.366 396.501,17.596 414.957,18.947 405.163,37.431 428.003,19.9 466.063,22.683 479.407,20.567 496.707,22.284 
		536.576,22.571 560.105,45.813 564.07,68.87 558.959,78.13 558.971,81.099 540.623,81.268 558.999,87.652 559.066,104.831 
		562.704,114.444 562.208,170.701 558.908,179.956 559.066,209.868 562.704,218.055 557.219,426.548 540.623,438.174 
		557.061,434.633 557.164,438.553 528.635,445.102 557.538,452.908 558.101,474.587 560.924,511.215 560.121,552.626 
		536.576,575.865 497.239,575.865 468.402,581.921 421.19,577.255 420.335,559.776 416.894,576.832 407.124,575.865 
		371.078,579.783 327.743,578.204 313.167,560.151 312.496,577.647 309.255,577.529 309.983,566.148 303.857,577.332 
		263.664,575.865 254.7,581.562 202.795,575.865 171.074,575.865 151.384,574.023 148.758,569.142 148.563,573.757 145.143,573.438 
		145.572,564.646 141.204,573.068 129.26,571.949 94.656,575.865 62.104,575.865 38.573,552.624 40.583,509.467 36.35,502.716 
		40.744,489.53 40.134,479.124 76.635,459.155 39.719,472.071 39.555,469.295 60.149,462.153 39.258,464.231 37.25,430.076 
		40.425,422.587 40.882,390.539 35.691,176.918 38.573,165.526 38.573,141.491 36.23,125.112 38.573,98.765 41.715,89.001 
		61.092,89.692 40.929,82.542 38.573,74.197 38.573,45.813 	"/>
	<polygon fill-rule="evenodd" clip-rule="evenodd" fill="#CCCCCC" points="85.661,22.571 77.67,11.909 76.548,11.791 52.062,11.791 
		62.104,22.571 	"/>
	<polygon fill-rule="evenodd" clip-rule="evenodd" fill="#CCCCCC" points="99.595,14.226 107.828,24.886 161.717,23.534 
		155.616,12.803 	"/>
	<path fill-rule="evenodd" clip-rule="evenodd" fill="#CCCCCC" d="M162.918,15.033l5.825,10.623l15.586-0.122L171.106,14.97
		L162.918,15.033L162.918,15.033z M190.205,25.49l3.943-0.031l-6.005-10.623l-3.364,0.027L190.205,25.49L190.205,25.49z
		 M197.824,25.43l7.327-0.055l-4.384-10.637l-4.851,0.04L197.824,25.43z"/>
	<path fill-rule="evenodd" clip-rule="evenodd" fill="#CCCCCC" d="M243.857,12.854l2.742,10.729l36.985-0.979l-1.504-10.758
		L243.857,12.854L243.857,12.854z M286.381,22.565l19.625-0.277l0.876-10.796l-17.436,0.248L286.381,22.565z"/>
	<polygon fill-rule="evenodd" clip-rule="evenodd" fill="#CCCCCC" points="315.143,6.846 313.952,17.874 380.644,22.366 
		384.475,11.574 	"/>
	<path fill-rule="evenodd" clip-rule="evenodd" fill="#CCCCCC" d="M400.958,6.554l-4.457,11.042l18.456,1.351l5.79-10.928
		L400.958,6.554L400.958,6.554z M428.003,19.9l38.06,2.784l7.209-10.776l-35.65-2.64l-2.738,5.351L428.003,19.9z"/>
	<polygon fill-rule="evenodd" clip-rule="evenodd" fill="#CCCCCC" points="505.125,11.486 496.707,22.284 536.576,22.571 
		546.966,12.181 546.577,11.791 	"/>
	<polygon fill-rule="evenodd" clip-rule="evenodd" fill="#C9C9C9" points="107.828,24.886 99.595,14.226 77.67,11.909 
		85.661,22.571 	"/>
	<polygon fill-rule="evenodd" clip-rule="evenodd" fill="#C9C9C9" points="155.616,12.803 161.717,23.534 168.743,25.656 
		162.918,15.033 	"/>
	<polygon fill-rule="evenodd" clip-rule="evenodd" fill="#C9C9C9" points="215.004,9.027 218.846,19.947 246.599,23.583 
		243.857,12.854 	"/>
	<polygon fill-rule="evenodd" clip-rule="evenodd" fill="#C9C9C9" points="487.143,9.679 479.407,20.567 496.707,22.284 
		505.125,11.486 	"/>
	<polygon fill-rule="evenodd" clip-rule="evenodd" fill="#D6D6D6" points="218.846,19.947 215.004,9.027 200.767,14.738 
		205.152,25.374 	"/>
	<polygon fill-rule="evenodd" clip-rule="evenodd" fill="#D6D6D6" points="306.883,11.492 306.007,22.288 313.952,17.874 
		315.143,6.846 	"/>
	<polygon fill-rule="evenodd" clip-rule="evenodd" fill="#D6D6D6" points="384.475,11.574 380.644,22.366 396.501,17.596 
		400.958,6.554 	"/>
	<polygon fill-rule="evenodd" clip-rule="evenodd" fill="#D6D6D6" points="473.272,11.907 466.063,22.683 479.407,20.567 
		487.143,9.679 	"/>
	<polygon fill-rule="evenodd" clip-rule="evenodd" fill="#D6D6D6" points="38.573,45.813 62.104,22.571 52.062,11.791 
		27.602,36.251 	"/>
	<polygon fill-rule="evenodd" clip-rule="evenodd" fill="#A4A4A4" points="28.695,88.536 27.602,91.978 38.573,98.765 
		41.715,89.001 	"/>
	<polygon fill-rule="evenodd" clip-rule="evenodd" fill="#A4A4A4" points="38.573,165.526 27.602,162.238 24.603,174.229 
		35.691,176.918 	"/>
	<polygon fill-rule="evenodd" clip-rule="evenodd" fill="#A4A4A4" points="40.425,422.587 29.525,425.276 26.226,433.156 
		37.25,430.076 	"/>
	<polygon fill-rule="evenodd" clip-rule="evenodd" fill="#A4A4A4" points="40.744,489.53 29.858,495.728 25.291,509.607 
		36.35,502.716 	"/>
	<polygon fill-rule="evenodd" clip-rule="evenodd" fill="#8D8D8D" points="40.929,82.542 38.573,74.197 27.602,66.121 31.22,79.099 
			"/>
	<polygon fill-rule="evenodd" clip-rule="evenodd" fill="#8D8D8D" points="36.23,125.112 25.165,119.706 27.602,136.943 
		38.573,141.491 	"/>
	<polygon fill-rule="evenodd" clip-rule="evenodd" fill="#8D8D8D" points="40.882,390.539 30,391.547 29.525,425.276 
		40.425,422.587 	"/>
	<polygon fill-rule="evenodd" clip-rule="evenodd" fill="#8D8D8D" points="36.35,502.716 25.291,509.607 29.69,516.711 
		40.583,509.467 	"/>
	<polygon fill-rule="evenodd" clip-rule="evenodd" fill="#8D8D8D" points="62.104,575.865 38.573,552.624 27.602,562.13 
		52.062,586.593 	"/>
	<polygon fill-rule="evenodd" clip-rule="evenodd" fill="#D6D6D6" points="536.576,22.571 560.105,45.813 571.035,36.251 
		546.966,12.181 	"/>
	<polygon fill-rule="evenodd" clip-rule="evenodd" fill="#8D8D8D" points="575.157,60.514 564.07,68.87 558.959,78.13 
		569.842,70.259 	"/>
	<polygon fill-rule="evenodd" clip-rule="evenodd" fill="#8D8D8D" points="573.22,167.686 562.208,170.701 558.908,179.956 
		569.791,177.426 	"/>
	<polygon fill-rule="evenodd" clip-rule="evenodd" fill="#A9A9A9" points="568.948,480 558.101,474.587 560.924,511.215 
		560.877,513.601 571.885,518.55 	"/>
	<polygon fill-rule="evenodd" clip-rule="evenodd" fill="#A4A4A4" points="562.704,114.444 573.736,108.481 569.956,98.36 
		559.066,104.831 	"/>
	<polygon fill-rule="evenodd" clip-rule="evenodd" fill="#A9A9A9" points="569.952,208.905 559.066,209.868 562.704,218.055 
		573.736,217.523 	"/>
	<path fill-rule="evenodd" clip-rule="evenodd" fill="#8D8D8D" d="M567.747,432.952l-1.244-0.352l-9.442,2.034l0.102,3.92
		l10.662-2.449L567.747,432.952L567.747,432.952z M557.538,452.908l0.563,21.679L568.948,480l-0.618-24.177L557.538,452.908z"/>
	<polygon fill-rule="evenodd" clip-rule="evenodd" fill="#8D8D8D" points="560.121,552.626 536.576,575.865 546.577,586.593 
		571.051,562.132 	"/>
	<polygon fill-rule="evenodd" clip-rule="evenodd" fill="#808080" points="85.903,586.593 94.656,575.865 62.104,575.865 
		52.062,586.593 	"/>
	<path fill-rule="evenodd" clip-rule="evenodd" fill="#808080" d="M263.664,575.865l-0.797,10.727l35.209,1.299l5.782-10.56
		L263.664,575.865L263.664,575.865z M308.568,588.279l3.512,0.128l0.415-10.761l-3.24-0.118L308.568,588.279L308.568,588.279z
		 M336.718,589.317l37.814,1.398l-3.453-10.932l-43.336-1.579L336.718,589.317z"/>
	<path fill-rule="evenodd" clip-rule="evenodd" fill="#808080" d="M407.124,575.865l4.88,10.727l2.865,0.285l2.026-10.046
		L407.124,575.865L407.124,575.865z M421.692,587.559l54.013,5.404l-7.304-11.042l-47.212-4.666L421.692,587.559z"/>
	<polygon fill-rule="evenodd" clip-rule="evenodd" fill="#808080" points="497.239,575.865 505.684,586.593 546.577,586.593 
		536.576,575.865 	"/>
	<polygon fill-rule="evenodd" clip-rule="evenodd" fill="#8D8D8D" points="121.874,582.47 129.26,571.949 94.656,575.865 
		85.903,586.593 	"/>
	<polygon fill-rule="evenodd" clip-rule="evenodd" fill="#8D8D8D" points="171.074,575.865 165.343,586.593 198.318,586.593 
		202.795,575.865 	"/>
	<polygon fill-rule="evenodd" clip-rule="evenodd" fill="#8D8D8D" points="254.7,581.562 252.277,592.587 262.866,586.593 
		263.664,575.865 	"/>
	<polygon fill-rule="evenodd" clip-rule="evenodd" fill="#8D8D8D" points="371.078,579.783 374.531,590.715 412.004,586.593 
		407.124,575.865 	"/>
	<polygon fill-rule="evenodd" clip-rule="evenodd" fill="#8D8D8D" points="468.402,581.921 475.705,592.963 505.684,586.593 
		497.239,575.865 	"/>
	<path fill-rule="evenodd" clip-rule="evenodd" fill="#808080" d="M165.343,586.593l5.731-10.727l-19.69-1.843l6.375,11.851
		L165.343,586.593L165.343,586.593z M148.563,573.757l-3.419-0.319l-0.548,11.188l3.489,0.331L148.563,573.757L148.563,573.757z
		 M141.204,573.068l-11.944-1.119l-7.386,10.521l13.771,1.305L141.204,573.068z"/>
	<polygon fill-rule="evenodd" clip-rule="evenodd" fill="#808080" points="202.795,575.865 198.318,586.593 252.277,592.587 
		254.7,581.562 	"/>
	<polygon fill-rule="evenodd" clip-rule="evenodd" fill="#666666" points="31.22,79.099 35.949,84.426 28.695,88.536 41.715,89.001 
		61.092,89.692 40.929,82.542 	"/>
	<polygon fill-rule="evenodd" clip-rule="evenodd" fill="#666666" points="171.106,14.97 184.329,25.534 194.29,33.493 
		190.205,25.49 184.78,14.864 181.307,17.252 180.979,17.299 	"/>
	<polygon fill-rule="evenodd" clip-rule="evenodd" fill="#666666" points="414.957,18.947 405.163,37.431 428.003,19.9 
		434.884,14.618 437.622,9.267 423.332,15.606 420.747,8.019 	"/>
	<polygon fill-rule="evenodd" clip-rule="evenodd" fill="#666666" points="557.164,438.553 528.635,445.102 557.538,452.908 
		568.33,455.824 561.971,445.917 567.826,436.104 	"/>
	<polygon fill-rule="evenodd" clip-rule="evenodd" fill="#666666" points="540.623,438.174 557.061,434.633 566.503,432.599 
		567.798,432.32 562.345,428.493 568.956,418.327 557.219,426.548 	"/>
	<polygon fill-rule="evenodd" clip-rule="evenodd" fill="#666666" points="327.743,578.204 313.167,560.151 312.496,577.647 
		312.08,588.408 317.844,578.383 336.718,589.317 	"/>
	<polygon fill-rule="evenodd" clip-rule="evenodd" fill="#666666" points="308.568,588.279 309.255,577.529 309.983,566.148 
		303.857,577.332 298.075,587.892 305.379,582.413 	"/>
	<polygon fill-rule="evenodd" clip-rule="evenodd" fill="#666666" points="40.134,479.124 76.635,459.155 39.719,472.071 
		28.708,475.921 36.331,476.835 29.24,485.083 	"/>
	<polygon fill-rule="evenodd" clip-rule="evenodd" fill="#666666" points="564.656,85.375 569.885,80.996 558.971,81.099 
		540.623,81.268 558.999,87.652 569.929,91.45 	"/>
	<path fill-rule="evenodd" clip-rule="evenodd" fill="#666666" d="M44.075,83.658l130.605,36.821l64.186,1.457l-4.343-62.241
		l-34.987-24.702l-1.811-10.109l39.063,32.936l0.51,0.396l0.045,0.646l4.388,62.878l39.337-11.55l1.861-92.268l4.045,2.544
		l-3.048,90.346l68.186,63.054l51.832-53.291l1.217-83.143l4.805-4.87l-2.366,90.798l88.597,21.62l44.424-63.709l6.26,2.175
		l-50.039,63.859l4.241,93.205l-66.802,213.509l97.725-9.687l16.473,6.134l-115.232,5.609l-0.368,0.037l-0.333-0.144l-90.071-38.497
		l20.714,66.404l61.217,63.455l0.559,0.583l-0.205,0.778l-3.573,28.567l-2.477-9.442l2.579-16.05l-59.455-65.16l-41.298,36.227
		l1.099,47.812l-8.834-1.059l0.362-9.432l4.246-35.189l-165.854-2.835l-6.416,51.311l-3.939-0.37l8.542-52.073l-42.491-87.293
		l-30.62,25.453l-14.066,7.695l-1.147-2.372l45.153-33.933l41.077-236.499l24.939-71.143L43.069,89.048L44.075,83.658L44.075,83.658
		z M240.357,123.365l-61.705,5.807l-27.049,62.835l51.655,242.869l135.634-21.244l6.985-234.504l-64.422-64.969L240.357,123.365
		L240.357,123.365z M353.54,176.519l-11.798,237.509l90.973,38.886l63.41-216.125l-0.736-89.059l-88.447-21.775L353.54,176.519
		L353.54,176.519z M337.763,418.793l-135.135,18.364l-49.59,83.683l165.631-0.187l41.603-36.493L337.763,418.793L337.763,418.793z
		 M201.838,436.574L149.12,197.847l-39.778,233.546l41.302,87.673L201.838,436.574z"/>
	<polygon fill-rule="evenodd" clip-rule="evenodd" fill="#999999" points="174.681,120.479 238.867,121.936 236.48,87.759 
		229.439,111.31 165.737,105.687 44.327,79.083 38.573,74.197 40.929,82.542 44.075,83.658 44.093,83.664 	"/>
	<polygon fill-rule="evenodd" clip-rule="evenodd" fill="#999999" points="239.634,91.672 241.733,121.739 281.07,110.189 
		282.066,60.729 271.505,94.822 247.987,108.313 	"/>
	<polygon fill-rule="evenodd" clip-rule="evenodd" fill="#999999" points="283.928,110.811 352.114,173.865 403.947,120.574 
		404.821,60.749 394.597,113.56 351.504,147.658 289.703,101.671 286.466,35.598 	"/>
	<polygon fill-rule="evenodd" clip-rule="evenodd" fill="#999999" points="407.602,123.358 496.199,144.977 540.623,81.268 
		558.971,81.099 558.959,78.13 536.989,76.46 487.529,130.045 413.707,118.054 408.396,92.928 	"/>
	<polygon fill-rule="evenodd" clip-rule="evenodd" fill="#999999" points="432.258,425.686 354.691,403.576 345.374,241.834 
		341.742,414.027 432.714,452.914 496.124,236.788 	"/>
	<polygon fill-rule="evenodd" clip-rule="evenodd" fill="#999999" points="203.257,434.877 338.891,413.633 345.876,179.129 
		321.155,398.705 206.394,410.694 151.602,192.008 	"/>
	<polygon fill-rule="evenodd" clip-rule="evenodd" fill="#999999" points="106.574,430.544 147.651,194.046 172.59,122.903 
		142.497,191.916 95.855,416.693 38.404,449.697 39.258,464.231 60.149,462.153 39.555,469.295 39.719,472.071 61.421,464.478 	"/>
	<polygon fill-rule="evenodd" clip-rule="evenodd" fill="#999999" points="151.683,489.391 109.342,431.393 150.644,519.066 
		201.838,436.574 	"/>
	<polygon fill-rule="evenodd" clip-rule="evenodd" fill="#999999" points="162.743,561.714 151.37,549.35 151.559,522.127 
		145.143,573.438 148.563,573.757 148.758,569.142 151.384,574.023 171.074,575.865 202.795,575.865 254.7,581.562 263.664,575.865 
		303.857,577.332 309.983,566.148 309.255,577.529 312.496,577.647 312.804,569.583 313.167,560.151 317.413,524.962 
		302.036,568.39 263.291,567.621 253.986,572.582 208.187,563.679 	"/>
	<polygon fill-rule="evenodd" clip-rule="evenodd" fill="#999999" points="141.204,573.068 149.746,520.995 134.826,553.472 
		114.216,556.842 68.876,556.094 41.745,538.477 39.721,527.978 38.573,552.624 62.104,575.865 94.656,575.865 129.26,571.949 	"/>
	<polygon fill-rule="evenodd" clip-rule="evenodd" fill="#999999" points="321.638,570.642 327.743,578.204 371.078,579.783 
		407.124,575.865 416.894,576.832 418.713,567.813 421.292,551.763 405.093,561.339 370.381,564.75 331.148,554.962 320.539,522.83 
			"/>
	<polygon fill-rule="evenodd" clip-rule="evenodd" fill="#999999" points="424.763,548.688 421.19,577.255 468.402,581.921 
		497.239,575.865 536.576,575.865 560.121,552.626 560.877,513.601 549.734,539.603 530.619,550.846 494.274,547.098 
		460.787,559.224 439.053,555.852 441.437,528.738 369.117,470.657 342.478,417.468 363.192,483.873 424.409,547.328 
		424.968,547.91 	"/>
	<polygon fill-rule="evenodd" clip-rule="evenodd" fill="#999999" points="318.669,520.653 360.272,484.16 349.018,451.477 
		348.884,471.027 309.913,504.004 153.038,520.84 	"/>
	<polygon fill-rule="evenodd" clip-rule="evenodd" fill="#999999" points="528.635,445.102 434.283,454.016 527.993,427.022 
		561.2,235.968 557.219,426.548 540.623,438.174 557.061,434.633 557.164,438.553 	"/>
	<polygon fill-rule="evenodd" clip-rule="evenodd" fill="#FFFFFF" points="38.228,44.268 30.143,38.466 37.104,46.61 38.573,72.746 
		39.447,47.266 62.492,23.752 85.35,23.471 104.91,24.583 86.287,21.691 78.968,13.644 83.478,21.412 62.681,21.504 53.238,13.053 
		60.244,22.252 	"/>
	<polygon fill-rule="evenodd" clip-rule="evenodd" fill="#FFFFFF" points="199.537,34.993 195.867,28.498 198.129,36.873 
		232.789,61.042 236.11,82.445 234.523,59.696 	"/>
	<polygon fill-rule="evenodd" clip-rule="evenodd" fill="#FFFFFF" points="217.099,19.896 205.152,25.374 219.198,21.659 
		245.633,23.457 220.137,19.451 215.62,10.785 	"/>
	<polygon fill-rule="evenodd" clip-rule="evenodd" fill="#FFFFFF" points="282.834,22.616 239.943,23.223 280.42,24.851 
		282.237,52.258 	"/>
	<polygon fill-rule="evenodd" clip-rule="evenodd" fill="#FFFFFF" points="159.703,22.605 134.773,24.211 160.546,24.479 
		168.482,27.266 180.784,25.563 168.743,25.656 162.68,23.825 157.28,15.732 	"/>
	<polygon fill-rule="evenodd" clip-rule="evenodd" fill="#FFFFFF" points="305.275,21.11 288.407,22.538 306.212,24.107 
		314.641,19.61 368.71,21.563 315.391,17.175 314.884,9.24 312.675,17.175 306.772,20.827 306.505,16.146 	"/>
	<polygon fill-rule="evenodd" clip-rule="evenodd" fill="#FFFFFF" points="383.276,21.575 396.094,18.63 412.347,20.362 
		405.163,37.431 414.957,18.947 397.641,16.896 399.877,9.23 395.393,16.801 	"/>
	<polygon fill-rule="evenodd" clip-rule="evenodd" fill="#FFFFFF" points="428.003,19.9 411.424,32.625 428.572,21.323 
		466.796,23.758 479.631,21.697 496.101,22.223 481.407,20.01 485.466,12.041 478.694,19.543 467.823,21.605 469.666,17.295 
		465.859,21.323 	"/>
	<polygon fill-rule="evenodd" clip-rule="evenodd" fill="#FFFFFF" points="536.21,21.325 510.637,22.384 535.552,24.229 
		558.971,47.461 563.471,65.383 561.503,46.807 568.87,38.147 560.097,44.09 538.175,22.823 545.21,13.935 	"/>
	<polygon fill-rule="evenodd" clip-rule="evenodd" fill="#FFFFFF" points="180.459,131.805 241.536,125.624 280.603,116.255 
		336.458,169.632 281.454,114.16 240.357,123.365 178.652,129.173 154.126,186.149 	"/>
	<polygon fill-rule="evenodd" clip-rule="evenodd" fill="#FFFFFF" points="43.069,89.048 166.58,121.332 43.209,92.371 
		39.65,99.397 37.679,125.722 38.211,138.963 35.338,126.285 26.612,120.415 35.807,123.661 37.494,99.492 29.643,93.241 
		37.868,96.867 41.715,89.001 	"/>
	<polygon fill-rule="evenodd" clip-rule="evenodd" fill="#FFFFFF" points="407.933,129.193 493.321,149.942 495.715,187.138 
		495.388,147.729 406.941,125.954 353.54,176.519 348.461,217.142 356.362,177.812 	"/>
	<polygon fill-rule="evenodd" clip-rule="evenodd" fill="#FFFFFF" points="500.011,149.194 546.884,83.444 496.845,147.302 
		499.873,213.907 	"/>
	<polygon fill-rule="evenodd" clip-rule="evenodd" fill="#FFFFFF" points="558.999,87.652 549.809,84.461 557.617,88.306 
		558.463,104.701 562.16,115.052 562.526,134.585 563.428,115.473 571.818,109.514 563.334,113.038 560.243,105.262 567.57,99.777 
		560.148,103.201 	"/>
	<polygon fill-rule="evenodd" clip-rule="evenodd" fill="#FFFFFF" points="560.286,208.497 558.967,191.356 557.944,210.279 
		561.597,218.242 561.2,235.968 563.562,219.272 572.57,217.581 563.377,216.929 560.192,210.561 563.314,209.491 	"/>
	<polygon fill-rule="evenodd" clip-rule="evenodd" fill="#FFFFFF" points="149.401,203.909 198.515,430.548 149.12,197.847 
		112.375,424.495 	"/>
	<polygon fill-rule="evenodd" clip-rule="evenodd" fill="#FFFFFF" points="38.573,158.01 38.971,165.408 36.187,177.401 
		40.554,242.964 34.453,177.589 25.759,174.511 35.014,175.621 37.64,166.065 31.639,163.449 37.825,164.38 	"/>
	<polygon fill-rule="evenodd" clip-rule="evenodd" fill="#FFFFFF" points="37.311,431.105 40.425,422.587 36.364,429.769 
		27.773,432.725 36.457,431.359 38.536,451.957 	"/>
	<polygon fill-rule="evenodd" clip-rule="evenodd" fill="#FFFFFF" points="204.415,439.7 336.133,421.433 343.533,435.554 
		337.763,418.793 202.628,437.157 161.43,506.68 	"/>
	<polygon fill-rule="evenodd" clip-rule="evenodd" fill="#FFFFFF" points="503.908,242.236 500.317,223.707 501.085,240.507 
		434.283,454.016 	"/>
	<polygon fill-rule="evenodd" clip-rule="evenodd" fill="#FFFFFF" points="346.762,419.297 432.055,458.16 520.642,451.819 
		433.25,456.071 432.882,456.109 432.549,455.965 	"/>
	<polygon fill-rule="evenodd" clip-rule="evenodd" fill="#FFFFFF" points="557.538,452.908 548.482,450.463 555.798,453.67 
		556.829,474.466 560.452,505.081 559.172,476.154 567.68,479.366 559.546,474.092 	"/>
	<polygon fill-rule="evenodd" clip-rule="evenodd" fill="#FFFFFF" points="323.223,520.475 361.786,489.924 413.565,543.294 
		361.838,486.603 	"/>
	<polygon fill-rule="evenodd" clip-rule="evenodd" fill="#FFFFFF" points="153.676,522.157 299.347,526.929 317.413,524.962 	"/>
	<polygon fill-rule="evenodd" clip-rule="evenodd" fill="#FFFFFF" points="107.255,433.702 76.635,459.155 62.569,466.85 
		43.312,477.386 77.044,461.82 106.461,437.651 146.494,514.318 	"/>
	<polygon fill-rule="evenodd" clip-rule="evenodd" fill="#FFFFFF" points="41.727,489.834 40.355,482.89 39.666,488.804 
		33.75,493.513 39.644,490.863 35.614,502.551 26.486,508.861 36.34,504.402 40.583,509.467 39.945,523.184 41.821,508.664 
		37.886,502.48 	"/>
	<g>
		<circle fill-rule="evenodd" clip-rule="evenodd" fill="#999999" cx="102.936" cy="51.171" r="6.557"/>
		<circle fill-rule="evenodd" clip-rule="evenodd" fill="#999999" cx="169.448" cy="61.102" r="6.369"/>
		<circle fill-rule="evenodd" clip-rule="evenodd" fill="#999999" cx="128.418" cy="78.525" r="2.81"/>
		<circle fill-rule="evenodd" clip-rule="evenodd" fill="#999999" cx="217.786" cy="83.209" r="3.372"/>
		<circle fill-rule="evenodd" clip-rule="evenodd" fill="#999999" cx="174.882" cy="89.018" r="1.686"/>
		<circle fill-rule="evenodd" clip-rule="evenodd" fill="#999999" cx="63.025" cy="141.666" r="8.619"/>
		<circle fill-rule="evenodd" clip-rule="evenodd" fill="#999999" cx="106.119" cy="157.778" r="4.497"/>
		<circle fill-rule="evenodd" clip-rule="evenodd" fill="#999999" cx="112.153" cy="517.319" r="5.995"/>
		<circle fill-rule="evenodd" clip-rule="evenodd" fill="#999999" cx="72.394" cy="261.95" r="4.496"/>
		<circle fill-rule="evenodd" clip-rule="evenodd" fill="#999999" cx="79.889" cy="172.767" r="1.498"/>
		<circle fill-rule="evenodd" clip-rule="evenodd" fill="#999999" cx="277.456" cy="546.549" r="11.242"/>
		<circle fill-rule="evenodd" clip-rule="evenodd" fill="#999999" cx="181.416" cy="538.996" r="8.244"/>
		<circle fill-rule="evenodd" clip-rule="evenodd" fill="#999999" cx="282.612" cy="244.337" r="4.871"/>
		<circle fill-rule="evenodd" clip-rule="evenodd" fill="#999999" cx="303.969" cy="145.786" r="5.246"/>
		<circle fill-rule="evenodd" clip-rule="evenodd" fill="#999999" cx="241.39" cy="239.091" r="6.37"/>
		<circle fill-rule="evenodd" clip-rule="evenodd" fill="#999999" cx="197.176" cy="155.905" r="4.872"/>
		<circle fill-rule="evenodd" clip-rule="evenodd" fill="#999999" cx="271.743" cy="60.351" r="4.496"/>
		<circle fill-rule="evenodd" clip-rule="evenodd" fill="#999999" cx="387.532" cy="64.474" r="15.363"/>
		<path fill-rule="evenodd" clip-rule="evenodd" fill="#999999" d="M346.689,74.591c2.896,0,5.245,2.351,5.245,5.246
			c0,2.9-2.349,5.247-5.245,5.247c-2.9,0-5.248-2.346-5.248-5.247C341.44,76.941,343.789,74.591,346.689,74.591z"/>
		<circle fill-rule="evenodd" clip-rule="evenodd" fill="#999999" cx="354.181" cy="47.612" r="6.745"/>
		<circle fill-rule="evenodd" clip-rule="evenodd" fill="#999999" cx="374.415" cy="114.311" r="3.747"/>
		<circle fill-rule="evenodd" clip-rule="evenodd" fill="#999999" cx="150.675" cy="355.55" r="11.616"/>
		<circle fill-rule="evenodd" clip-rule="evenodd" fill="#999999" cx="415.19" cy="223.15" r="4.87"/>
		<circle fill-rule="evenodd" clip-rule="evenodd" fill="#999999" cx="493.203" cy="213.611" r="1.873"/>
		<path fill-rule="evenodd" clip-rule="evenodd" fill="#999999" d="M447.487,248.459c2.689,0,4.87,2.183,4.87,4.872
			s-2.181,4.87-4.87,4.87c-2.693,0-4.872-2.181-4.872-4.87S444.794,248.459,447.487,248.459z"/>
		<path fill-rule="evenodd" clip-rule="evenodd" fill="#999999" d="M532.363,162.599c3.102,0,5.618,2.516,5.618,5.62
			c0,3.104-2.516,5.621-5.618,5.621c-3.107,0-5.623-2.516-5.623-5.621C526.74,165.114,529.257,162.599,532.363,162.599z"/>
		<circle fill-rule="evenodd" clip-rule="evenodd" fill="#999999" cx="449.846" cy="91.854" r="13.49"/>
		<circle fill-rule="evenodd" clip-rule="evenodd" fill="#999999" cx="398.409" cy="467.245" r="6.37"/>
		<path fill-rule="evenodd" clip-rule="evenodd" fill="#999999" d="M503.637,265.281c2.894,0,5.245,2.347,5.245,5.245
			c0,2.896-2.351,5.245-5.245,5.245c-2.898,0-5.249-2.349-5.249-5.245C498.388,267.628,500.739,265.281,503.637,265.281z"/>
		<circle fill-rule="evenodd" clip-rule="evenodd" fill="#999999" cx="474.843" cy="52.107" r="6.746"/>
		<path fill-rule="evenodd" clip-rule="evenodd" fill="#999999" d="M542.667,46.862c3.516,0,6.367,2.852,6.367,6.369
			c0,3.52-2.85,6.371-6.367,6.371c-3.52,0-6.37-2.85-6.37-6.371C536.297,49.715,539.147,46.862,542.667,46.862z"/>
		<circle fill-rule="evenodd" clip-rule="evenodd" fill="#999999" cx="477.466" cy="96.699" r="1.125"/>
		<circle fill-rule="evenodd" clip-rule="evenodd" fill="#999999" cx="250.013" cy="315.158" r="3.746"/>
		<circle fill-rule="evenodd" clip-rule="evenodd" fill="#999999" cx="68.441" cy="528.119" r="11.616"/>
		<circle fill-rule="evenodd" clip-rule="evenodd" fill="#999999" cx="360.107" cy="535.461" r="7.869"/>
		<circle fill-rule="evenodd" clip-rule="evenodd" fill="#999999" cx="302.097" cy="332.02" r="2.622"/>
		<circle fill-rule="evenodd" clip-rule="evenodd" fill="#999999" cx="365.8" cy="321.529" r="1.874"/>
		<circle fill-rule="evenodd" clip-rule="evenodd" fill="#999999" cx="245.097" cy="349.646" r="6.299"/>
		<path fill-rule="evenodd" clip-rule="evenodd" fill="#999999" d="M220.513,464.357c4.758,0,8.619,3.856,8.619,8.619
			c0,4.758-3.86,8.617-8.619,8.617c-4.76,0-8.619-3.858-8.619-8.617C211.894,468.214,215.753,464.357,220.513,464.357z"/>
		<circle fill-rule="evenodd" clip-rule="evenodd" fill="#999999" cx="150.963" cy="266.434" r="4.122"/>
		<circle fill-rule="evenodd" clip-rule="evenodd" fill="#999999" cx="145.466" cy="290.802" r="3.372"/>
		<circle fill-rule="evenodd" clip-rule="evenodd" fill="#999999" cx="94.88" cy="347.384" r="5.246"/>
		<circle fill-rule="evenodd" clip-rule="evenodd" fill="#999999" cx="61.155" cy="390.851" r="5.245"/>
		<circle fill-rule="evenodd" clip-rule="evenodd" fill="#999999" cx="152.48" cy="436.691" r="5.995"/>
		<circle fill-rule="evenodd" clip-rule="evenodd" fill="#999999" cx="88.98" cy="488.097" r="5.246"/>
		<circle fill-rule="evenodd" clip-rule="evenodd" fill="#999999" cx="266.878" cy="475.497" r="4.121"/>
		<circle fill-rule="evenodd" clip-rule="evenodd" fill="#999999" cx="278.611" cy="408.614" r="6.37"/>
		<circle fill-rule="evenodd" clip-rule="evenodd" fill="#999999" cx="312.236" cy="441.731" r="5.995"/>
		<circle fill-rule="evenodd" clip-rule="evenodd" fill="#999999" cx="349.421" cy="380.645" r="4.496"/>
		<circle fill-rule="evenodd" clip-rule="evenodd" fill="#999999" cx="380.789" cy="401.719" r="4.122"/>
		<circle fill-rule="evenodd" clip-rule="evenodd" fill="#999999" cx="491.14" cy="503.208" r="12.74"/>
		<path fill-rule="evenodd" clip-rule="evenodd" fill="#999999" d="M529.93,471.677c4.347,0,7.87,3.524,7.87,7.871
			c0,4.345-3.524,7.866-7.87,7.866c-4.343,0-7.867-3.522-7.867-7.866C522.063,475.201,525.587,471.677,529.93,471.677z"/>
		<circle fill-rule="evenodd" clip-rule="evenodd" fill="#999999" cx="552.408" cy="347.01" r="4.121"/>
		<path fill-rule="evenodd" clip-rule="evenodd" fill="#999999" d="M517.933,331.646c2.693,0,4.874,2.183,4.874,4.872
			c0,2.689-2.182,4.872-4.874,4.872c-2.689,0-4.87-2.183-4.87-4.872C513.063,333.829,515.244,331.646,517.933,331.646z"/>
		<path fill-rule="evenodd" clip-rule="evenodd" fill="#999999" d="M451.68,493.324c3.516,0,6.367,2.85,6.367,6.368
			c0,3.52-2.851,6.371-6.367,6.371c-3.52,0-6.371-2.85-6.371-6.371C445.31,496.175,448.16,493.324,451.68,493.324z"/>
		<circle fill-rule="evenodd" clip-rule="evenodd" fill="#999999" cx="509.692" cy="394.224" r="3.373"/>
		<path fill-rule="evenodd" clip-rule="evenodd" fill="#999999" d="M524.3,359.768c2.067,0,3.748,1.677,3.748,3.746
			c0,2.069-1.681,3.746-3.748,3.746c-2.071,0-3.748-1.677-3.748-3.746C520.551,361.445,522.228,359.768,524.3,359.768z"/>
		<path fill-rule="evenodd" clip-rule="evenodd" fill="#999999" d="M371.842,298.645c1.86,0,3.372,1.512,3.372,3.372
			c0,1.864-1.512,3.375-3.372,3.375c-1.864,0-3.374-1.51-3.374-3.375C368.468,300.157,369.978,298.645,371.842,298.645z"/>
	</g>
</g>
</svg>
