<?xml version="1.0" encoding="utf-8"?>
<!-- Generator: Adobe Illustrator 17.1.0, SVG Export Plug-In . SVG Version: 6.00 Build 0)  -->
<!DOCTYPE svg PUBLIC "-//W3C//DTD SVG 1.1//EN" "http://www.w3.org/Graphics/SVG/1.1/DTD/svg11.dtd">
<svg version="1.1" id="Layer_3" xmlns="http://www.w3.org/2000/svg" xmlns:xlink="http://www.w3.org/1999/xlink" x="0px" y="0px"
	 viewBox="0 0 200 200" enable-background="new 0 0 200 200" xml:space="preserve">
<g>
	<path d="M195.713,134.762c-96.863-29.388-85.52-29.658-73.763,41.775c-25.034-81.315-19.448-52.722-54.085,20.271
		c30.059-89.141,26.94-80.679-63.543-70.616c84.123-26.228,100.908-8.819,23.676-85.007c85.073,59.578,63.365,59.391,102.2-38.443
		c-23.328,98.437-40.11,94.125,56.431,57.382C115.067,102.56,103.507,95.008,195.713,134.762L195.713,134.762z"/>
	<path fill="#4F4F4F" d="M114.51,62.986C97.268,90.702,101.78,91.495,82.441,50.714c13.367,46.15,12.4,41.297-17.123,22.67
		c24.97,31.254,17.619,22.636-26.129,25.713c50.775,6.489,51.992-0.931,15.312,32.052c39.701-23.811,36.881-17.818,19.614,33.565
		c22.056-46.346,22.68-55.819,39.753-18.741c-5.316-38.269-2.314-32.625,29.325-10.857c-39.826-37.163-20.116-27.359,8.25-31.668
		c-26.601-4.305-41.126-1.249-6.362-26.362C115.29,91.013,106.534,100.833,114.51,62.986L114.51,62.986z"/>
	<path fill="#333333" d="M119.408,129.878c-21.03-28.736-17.704-26.439-30.951-3.422c11.728-28.64,6.678-19.242-20.282-5.49
		c29.403-19.357,26.535-17.575-1.844-33.623C96.643,97.407,97.42,105.93,92.934,67.838c10.609,34.955,4.406,30.356,38.358,10.335
		c-29.63,23.441-33.455,18.687,2.878,28.326C103.7,103.728,102.132,99.134,119.408,129.878L119.408,129.878z"/>
</g>
</svg>
