<?xml version="1.0" encoding="utf-8"?>
<!DOCTYPE svg PUBLIC "-//W3C//DTD SVG 1.1//EN" "http://www.w3.org/Graphics/SVG/1.1/DTD/svg11.dtd">
<svg version="1.1" id="Layer_1" xmlns="http://www.w3.org/2000/svg" xmlns:xlink="http://www.w3.org/1999/xlink" x="0px" y="0px"
	 viewBox="0 0 200 200" enable-background="new 0 0 200 200" xml:space="preserve">
<g>
	<path fill="none" stroke="#666666" stroke-width="1.582" stroke-miterlimit="22.9256" d="M116.84,171.359l-40.976-5.193
		l-12.874-44.84l12.012-32.181l-6.65-39.478l25.962-21.026l35.398,16.305l1.072,35.829l-6.003,16.527l12.227,46.762L116.84,171.359
		L116.84,171.359z M95.172,57.038l-2.36,16.516l9.656,5.152l5.147-15.886L95.172,57.038L95.172,57.038z M98.21,112.39l-7.475,25.957
		l12.589,7.728l6.008-27.251L98.21,112.39z"/>
	
		<linearGradient id="SVGID_1_" gradientUnits="userSpaceOnUse" x1="99.9995" y1="44.1118" x2="99.9995" y2="196.9195" gradientTransform="matrix(1 0 0 -1 0 200)">
		<stop  offset="0" style="stop-color:#FF8000"/>
		<stop  offset="1" style="stop-color:#FFBF80"/>
	</linearGradient>
	<path fill="url(#SVGID_1_)" d="M116.84,171.359l-16.626-2.103v-25.085l3.111,1.903l6.008-27.251l-9.12-5.267V77.497l2.254,1.209
		l5.147-15.886l-7.401-3.439V31.358l29.5,13.588l1.072,35.829l-6.003,16.527l12.227,46.762L116.84,171.359z M100.214,169.256
		l-24.35-3.091l-12.874-44.84l12.012-32.181l-6.65-39.478L94.314,28.64l5.898,2.717V59.38l-5.042-2.344l-2.36,16.516l7.401,3.943
		v36.061l-2.003-1.167l-7.475,25.957l9.478,5.824v25.086H100.214z"/>
</g>
</svg>
