<?xml version="1.0" encoding="utf-8"?>
<!DOCTYPE svg PUBLIC "-//W3C//DTD SVG 1.1//EN" "http://www.w3.org/Graphics/SVG/1.1/DTD/svg11.dtd">
<svg version="1.1" id="Layer_1" xmlns="http://www.w3.org/2000/svg" xmlns:xlink="http://www.w3.org/1999/xlink" x="0px" y="0px"
	 viewBox="0 0 200 200" enable-background="new 0 0 200 200" xml:space="preserve">
<g>
	<polygon fill="none" stroke="#666666" stroke-width="2.1223" stroke-miterlimit="22.9256" points="132.274,3.24 169.098,1.236 
		195.998,28.501 199,59.581 195.807,128.872 192.283,132.047 195.544,134.591 195.371,138.328 195.41,140.216 186.777,145.103 
		195.63,150.858 195.998,168.702 169.098,195.962 87.763,199 69.436,198.027 63.4,193.343 61.187,197.587 55.678,197.292 
		53.707,194.294 49.332,196.953 30.763,195.962 3.863,168.702 6.101,129.07 1.931,76.578 2.685,76.488 7.035,72.207 1.286,68.478 
		1.236,67.829 3.863,28.501 30.763,1.236 75.757,6.306 118.62,3.979 127.239,8.061 132.129,3.935 	"/>
	<path fill="#808080" d="M30.763,1.236l44.993,5.07l42.864-2.328l8.969,21.574l4.685-22.313l36.824-2.004l26.9,27.265L199,59.581
		l-3.193,69.291l-33.448,8.235l33.185-2.515l-0.173,3.736l0.039,1.889l-39.303,4.241l39.523,6.4l0.368,17.844l-26.9,27.261
		L87.763,199l-18.327-0.973l-7.135-11.979l-1.114,11.539l-5.509-0.296l1.369-12.003l-7.715,11.664l-18.569-0.99l-26.9-27.261
		l2.238-39.631l-4.17-52.492l30.338-3.618L1.286,68.478l-0.05-0.649l2.627-39.328L30.763,1.236z"/>
	<polygon fill="#B3B3B3" points="159.369,15.647 128.952,19.073 127.589,25.552 125.078,19.51 120.93,19.978 41.192,15.647 
		18.212,38.936 15.646,65.487 15.881,70.586 32.27,72.961 16.079,74.892 18.746,132.76 18.212,158.705 41.192,181.999 
		110.674,184.593 159.369,181.999 182.352,158.705 181.779,148.613 156.108,144.458 181.389,141.729 181.048,135.69 
		162.359,137.106 180.87,132.551 180.434,124.854 184.597,72.532 182.352,38.936 	"/>
	<polygon fill="#666666" points="55.678,197.292 57.047,185.289 49.332,196.953 53.707,194.294 	"/>
	<polygon fill="#666666" points="62.301,186.049 61.187,197.587 63.4,193.343 69.436,198.027 	"/>
	<polygon fill="#666666" points="156.108,144.458 181.779,148.613 195.63,150.858 186.777,145.103 195.41,140.216 181.389,141.729 	
		"/>
	<polygon fill="#666666" points="181.048,135.69 195.544,134.591 192.283,132.047 195.807,128.872 180.87,132.551 162.359,137.106 	
		"/>
	<polygon fill="#666666" points="128.952,19.073 132.129,3.935 127.239,8.061 118.62,3.979 125.078,19.51 127.589,25.552 	"/>
	<polygon fill="#666666" points="32.27,72.961 15.881,70.586 1.286,68.478 7.035,72.207 2.685,76.488 16.079,74.892 	"/>
	<polygon fill="#666666" points="86.578,90.434 127.337,60.834 125.442,20.375 130.148,13.384 129.25,61.336 129.25,61.837 
		128.85,62.128 92.506,92.714 122.069,135.514 171.57,142.793 162.305,145.466 156.108,144.458 122.811,140.447 75.093,164.158 
		64.928,190.46 62.301,186.049 73.4,162.799 73.533,162.55 73.778,162.41 120.076,136.09 86.167,92.329 19.459,74.492 32.27,72.961 
			"/>
	<polygon fill="#CCCCCC" points="41.192,15.647 120.93,19.978 125.078,19.51 118.62,3.979 75.757,6.306 30.763,1.236 	"/>
	<polygon fill="#CCCCCC" points="132.129,3.935 130.148,13.384 130.043,18.951 159.369,15.647 169.098,1.236 132.274,3.24 	"/>
	<polygon fill="#D6D6D6" points="41.192,15.647 30.763,1.236 3.863,28.501 18.212,38.936 	"/>
	<polygon fill="#D6D6D6" points="159.369,15.647 182.352,38.936 195.998,28.501 169.098,1.236 	"/>
	<polygon fill="#A3A3A3" points="195.998,28.501 182.352,38.936 184.597,72.532 199,59.581 	"/>
	<polygon fill="#A3A3A3" points="15.646,65.487 18.212,38.936 3.863,28.501 1.236,67.829 1.286,68.478 15.881,70.586 	"/>
	<polygon fill="#999999" points="16.079,74.892 2.685,76.488 1.931,76.578 6.101,129.07 18.746,132.76 	"/>
	<polygon fill="#999999" points="184.597,72.532 180.434,124.854 195.807,128.872 199,59.581 	"/>
	<polygon fill="#A3A3A3" points="18.212,158.705 18.746,132.76 6.101,129.07 3.863,168.702 	"/>
	<polygon fill="#8D8D8D" points="18.212,158.705 3.863,168.702 30.763,195.962 41.192,181.999 	"/>
	<polygon fill="#757575" points="110.674,184.593 87.763,199 169.098,195.962 159.369,181.999 	"/>
	<polygon fill="#8D8D8D" points="182.352,158.705 159.369,181.999 169.098,195.962 195.998,168.702 	"/>
	<polygon fill="#A3A3A3" points="182.352,158.705 195.998,168.702 195.63,150.858 181.779,148.613 	"/>
	<polygon fill="#A3A3A3" points="181.389,141.729 195.41,140.216 195.371,138.328 195.544,134.591 181.048,135.69 	"/>
	<polygon fill="#A3A3A3" points="180.87,132.551 195.807,128.872 180.434,124.854 	"/>
	<polygon fill="#FFFFFF" points="18.227,37.361 6.36,30.32 16.854,39.895 15.801,68.798 19.351,39.642 41.495,17.33 93.162,18.472 
		42.244,14.67 34.374,6.227 39.495,15.682 	"/>
	<polygon fill="#FFFFFF" points="159.329,17.081 133.636,18.544 158.075,14.544 166.845,4.581 161.203,15.431 182.344,36.857 
		192.275,31.347 183.595,39.772 184.51,69.757 197.263,61.144 184.597,72.532 182.352,100.815 183.343,72.048 181.343,39.898 	"/>
	<polygon fill="#FFFFFF" points="129.25,61.837 95.277,90.387 132.695,62.716 129.773,33.297 	"/>
	<polygon fill="#FFFFFF" points="19.459,74.492 4.015,76.333 18.49,75.908 85.158,93.908 116.483,131.453 86.167,92.329 	"/>
	<polygon fill="#FFFFFF" points="75.093,164.158 70.012,177.307 76.91,166.554 124.447,142.72 175.873,147.658 122.811,140.447 	"/>
	<polygon fill="#FFFFFF" points="162.359,137.106 195.544,134.591 195.443,136.771 	"/>
	<polygon fill="#999999" points="32.27,72.961 22.115,71.49 36.482,70.856 83.641,83.281 122.418,56.784 126.141,35.278 
		127.337,60.834 86.578,90.434 	"/>
	<polygon fill="#999999" points="122.069,135.514 96.332,98.261 126.292,131.463 171.325,139.704 195.41,140.216 168.748,143.095 	
		"/>
	<polygon fill="#999999" points="73.4,162.799 120.076,136.09 69.508,158.85 57.501,177.61 43.112,179.386 21.225,161.761 
		41.192,181.999 63.832,182.845 	"/>
	<polygon fill="#999999" points="156.449,177.109 110.667,181.67 67.814,182.993 110.674,184.593 159.369,181.999 182.352,158.705 
		181.779,148.613 178.464,157.333 	"/>
	<polygon fill="#FFFFFF" points="17.87,131.355 9.351,130.018 17.996,134.144 18.237,157.463 19.996,133.888 17.841,113.099 	"/>
	<ellipse fill="#999999" cx="51.443" cy="38.403" rx="6.13" ry="6.212"/>
	<path fill="#999999" d="M95.601,36.503c1.795,0,3.254,1.477,3.254,3.297c0,1.816-1.459,3.294-3.254,3.294
		c-1.794,0-3.25-1.477-3.25-3.294C92.351,37.981,93.807,36.503,95.601,36.503z"/>
	<path fill="#999999" d="M65.076,64.647c1.935,0,3.503,1.589,3.503,3.55c0,1.956-1.567,3.545-3.503,3.545
		c-1.931,0-3.503-1.589-3.503-3.545C61.573,66.236,63.144,64.647,65.076,64.647z"/>
	<ellipse fill="#999999" cx="164.648" cy="79.095" rx="2.749" ry="2.787"/>
	<path fill="#999999" d="M152.518,38.277c2.692,0,4.88,2.216,4.88,4.944c0,2.731-2.187,4.944-4.88,4.944
		c-2.695,0-4.879-2.213-4.879-4.944C147.639,40.493,149.823,38.277,152.518,38.277z"/>
	<ellipse fill="#999999" cx="137.881" cy="112.564" rx="7.502" ry="7.605"/>
	<path fill="#999999" d="M39.815,99.889c0.826,0,1.5,0.685,1.5,1.521c0,0.839-0.674,1.524-1.5,1.524
		c-0.829,0-1.499-0.685-1.499-1.524C38.316,100.574,38.986,99.889,39.815,99.889z"/>
	<path fill="#999999" d="M82.718,119.417c2.415,0,4.379,1.985,4.379,4.436c0,2.45-1.964,4.435-4.379,4.435
		c-2.418,0-4.378-1.985-4.378-4.435C78.341,121.402,80.301,119.417,82.718,119.417z"/>
	<path fill="#999999" d="M37.812,135.135c3.593,0,6.504,2.951,6.504,6.59c0,3.643-2.911,6.591-6.504,6.591
		c-3.593,0-6.505-2.948-6.505-6.591C31.307,138.086,34.219,135.135,37.812,135.135z"/>
	<path fill="#999999" d="M145.513,164.039c2.418,0,4.379,1.989,4.379,4.436c0,2.45-1.961,4.439-4.379,4.439
		s-4.379-1.989-4.379-4.439C141.134,166.028,143.095,164.039,145.513,164.039z"/>
	<ellipse fill="#999999" cx="113.741" cy="162.898" rx="2.624" ry="2.661"/>
</g>
</svg>
