<?xml version="1.0" encoding="utf-8"?>
<!-- Generator: Adobe Illustrator 17.1.0, SVG Export Plug-In . SVG Version: 6.00 Build 0)  -->
<!DOCTYPE svg PUBLIC "-//W3C//DTD SVG 1.1//EN" "http://www.w3.org/Graphics/SVG/1.1/DTD/svg11.dtd">
<svg version="1.1" id="Layer_1" xmlns="http://www.w3.org/2000/svg" xmlns:xlink="http://www.w3.org/1999/xlink" x="0px" y="0px"
	 viewBox="0 0 200 200" enable-background="new 0 0 200 200" xml:space="preserve">
<g>
	<polygon fill="none" stroke="#666666" stroke-width="2.1223" stroke-miterlimit="22.9256" points="132.274,3.24 169.098,1.236 
		195.998,28.501 199,59.581 195.807,128.872 192.283,132.047 195.544,134.591 195.371,138.328 195.41,140.216 186.777,145.103 
		195.63,150.858 195.998,168.702 169.098,195.962 87.763,199 69.436,198.027 63.4,193.343 61.187,197.587 55.678,197.292 
		53.707,194.294 49.332,196.953 30.763,195.962 3.863,168.702 6.101,129.07 1.931,76.578 2.685,76.488 7.035,72.207 1.286,68.478 
		1.236,67.829 3.863,28.501 30.763,1.236 75.757,6.306 118.62,3.979 127.239,8.061 132.129,3.935 	"/>
	<polygon fill="#666666" points="55.678,197.292 57.047,185.289 49.332,196.953 53.707,194.294 	"/>
	<polygon fill="#666666" points="62.301,186.049 61.187,197.587 63.4,193.343 69.436,198.027 	"/>
	<polygon fill="#666666" points="128.952,19.073 132.129,3.935 127.239,8.061 118.62,3.979 125.078,19.51 127.589,25.552 	"/>
	<polygon fill="#666666" points="32.27,72.961 15.881,70.586 1.286,68.478 7.035,72.207 2.685,76.488 16.079,74.892 	"/>
	<polygon fill="#FFFFFF" points="159.329,17.081 133.636,18.544 158.075,14.544 166.845,4.581 161.203,15.431 182.344,36.857 
		192.275,31.347 183.595,39.772 184.51,69.757 197.263,61.144 184.597,72.532 182.352,100.815 183.343,72.048 181.343,39.898 	"/>
</g>
</svg>
