<?xml version="1.0" encoding="utf-8"?>
<!-- Generator: Adobe Illustrator 17.1.0, SVG Export Plug-In . SVG Version: 6.00 Build 0)  -->
<!DOCTYPE svg PUBLIC "-//W3C//DTD SVG 1.1//EN" "http://www.w3.org/Graphics/SVG/1.1/DTD/svg11.dtd">
<svg version="1.1" id="Layer_1" xmlns="http://www.w3.org/2000/svg" xmlns:xlink="http://www.w3.org/1999/xlink" x="0px" y="0px"
	 viewBox="0 0 200 200" enable-background="new 0 0 200 200" xml:space="preserve">
<g>
	
		<polygon fill-rule="evenodd" clip-rule="evenodd" fill="none" stroke="#666666" stroke-width="2.1223" stroke-miterlimit="22.9256" points="
		132.274,3.24 169.098,1.236 195.998,28.501 199,59.581 195.807,128.872 192.283,132.047 195.544,134.591 195.371,138.328 
		195.41,140.216 186.777,145.103 195.63,150.858 195.998,168.702 169.098,195.962 87.763,199 69.436,198.027 63.4,193.343 
		61.187,197.587 55.678,197.292 53.707,194.294 49.332,196.953 30.763,195.962 3.863,168.702 6.101,129.07 1.931,76.578 
		2.685,76.488 7.035,72.207 1.286,68.478 1.236,67.829 3.863,28.501 30.763,1.236 75.757,6.306 118.62,3.979 127.239,8.061 
		132.129,3.935 	"/>
	<path fill-rule="evenodd" clip-rule="evenodd" fill="#808080" d="M30.763,1.236l44.993,5.07l42.864-2.328l8.969,21.574
		l4.685-22.313l36.824-2.004l26.9,27.265L199,59.581l-3.193,69.291l-33.448,8.235l33.185-2.515l-0.173,3.736l0.039,1.889
		l-39.303,4.241l39.523,6.4l0.368,17.844l-26.9,27.261L87.763,199l-18.327-0.973l-7.135-11.979l-1.114,11.539l-5.509-0.296
		l1.369-12.003l-7.715,11.664l-18.569-0.99l-26.9-27.261l2.238-39.631l-4.17-52.492l30.338-3.618L1.286,68.478l-0.05-0.649
		l2.627-39.328L30.763,1.236z"/>
	<polygon fill-rule="evenodd" clip-rule="evenodd" fill="#B3B3B3" points="159.369,15.647 128.952,19.073 127.589,25.552 
		125.078,19.51 120.93,19.978 41.192,15.647 18.212,38.936 15.646,65.487 15.881,70.586 32.27,72.961 16.079,74.892 18.746,132.76 
		18.212,158.705 41.192,181.999 110.674,184.593 159.369,181.999 182.352,158.705 181.779,148.613 156.108,144.458 181.389,141.729 
		181.048,135.69 162.359,137.106 180.87,132.551 180.434,124.854 184.597,72.532 182.352,38.936 	"/>
	<polygon fill-rule="evenodd" clip-rule="evenodd" fill="#666666" points="55.678,197.292 57.047,185.289 49.332,196.953 
		53.707,194.294 	"/>
	<polygon fill-rule="evenodd" clip-rule="evenodd" fill="#666666" points="62.301,186.049 61.187,197.587 63.4,193.343 
		69.436,198.027 	"/>
	<polygon fill-rule="evenodd" clip-rule="evenodd" fill="#666666" points="156.108,144.458 181.779,148.613 195.63,150.858 
		186.777,145.103 195.41,140.216 181.389,141.729 	"/>
	<polygon fill-rule="evenodd" clip-rule="evenodd" fill="#666666" points="181.048,135.69 195.544,134.591 192.283,132.047 
		195.807,128.872 180.87,132.551 162.359,137.106 	"/>
	<polygon fill-rule="evenodd" clip-rule="evenodd" fill="#666666" points="128.952,19.073 132.129,3.935 127.239,8.061 
		118.62,3.979 125.078,19.51 127.589,25.552 	"/>
	<polygon fill-rule="evenodd" clip-rule="evenodd" fill="#666666" points="32.27,72.961 15.881,70.586 1.286,68.478 7.035,72.207 
		2.685,76.488 16.079,74.892 	"/>
	<polygon fill-rule="evenodd" clip-rule="evenodd" fill="#666666" points="86.578,90.434 127.337,60.834 125.442,20.375 
		130.148,13.384 129.25,61.336 129.25,61.837 128.85,62.128 92.506,92.714 122.069,135.514 171.57,142.793 162.305,145.466 
		156.108,144.458 122.811,140.447 75.093,164.158 64.928,190.46 62.301,186.049 73.4,162.799 73.533,162.55 73.778,162.41 
		120.076,136.09 86.167,92.329 19.459,74.492 32.27,72.961 	"/>
	<polygon fill-rule="evenodd" clip-rule="evenodd" fill="#CCCCCC" points="41.192,15.647 120.93,19.978 125.078,19.51 118.62,3.979 
		75.757,6.306 30.763,1.236 	"/>
	<polygon fill-rule="evenodd" clip-rule="evenodd" fill="#CCCCCC" points="132.129,3.935 130.148,13.384 130.043,18.951 
		159.369,15.647 169.098,1.236 132.274,3.24 	"/>
	<polygon fill-rule="evenodd" clip-rule="evenodd" fill="#D6D6D6" points="41.192,15.647 30.763,1.236 3.863,28.501 18.212,38.936 	
		"/>
	<polygon fill-rule="evenodd" clip-rule="evenodd" fill="#D6D6D6" points="159.369,15.647 182.352,38.936 195.998,28.501 
		169.098,1.236 	"/>
	<polygon fill-rule="evenodd" clip-rule="evenodd" fill="#A3A3A3" points="195.998,28.501 182.352,38.936 184.597,72.532 
		199,59.581 	"/>
	<polygon fill-rule="evenodd" clip-rule="evenodd" fill="#A3A3A3" points="15.646,65.487 18.212,38.936 3.863,28.501 1.236,67.829 
		1.286,68.478 15.881,70.586 	"/>
	<polygon fill-rule="evenodd" clip-rule="evenodd" fill="#999999" points="16.079,74.892 2.685,76.488 1.931,76.578 6.101,129.07 
		18.746,132.76 	"/>
	<polygon fill-rule="evenodd" clip-rule="evenodd" fill="#999999" points="184.597,72.532 180.434,124.854 195.807,128.872 
		199,59.581 	"/>
	<polygon fill-rule="evenodd" clip-rule="evenodd" fill="#A3A3A3" points="18.212,158.705 18.746,132.76 6.101,129.07 
		3.863,168.702 	"/>
	<polygon fill-rule="evenodd" clip-rule="evenodd" fill="#8D8D8D" points="18.212,158.705 3.863,168.702 30.763,195.962 
		41.192,181.999 	"/>
	<polygon fill-rule="evenodd" clip-rule="evenodd" fill="#757575" points="110.674,184.593 87.763,199 169.098,195.962 
		159.369,181.999 	"/>
	<polygon fill-rule="evenodd" clip-rule="evenodd" fill="#8D8D8D" points="182.352,158.705 159.369,181.999 169.098,195.962 
		195.998,168.702 	"/>
	<polygon fill-rule="evenodd" clip-rule="evenodd" fill="#A3A3A3" points="182.352,158.705 195.998,168.702 195.63,150.858 
		181.779,148.613 	"/>
	<polygon fill-rule="evenodd" clip-rule="evenodd" fill="#A3A3A3" points="181.389,141.729 195.41,140.216 195.371,138.328 
		195.544,134.591 181.048,135.69 	"/>
	<polygon fill-rule="evenodd" clip-rule="evenodd" fill="#A3A3A3" points="180.87,132.551 195.807,128.872 180.434,124.854 	"/>
	<polygon fill-rule="evenodd" clip-rule="evenodd" fill="#FFFFFF" points="18.227,37.361 6.36,30.32 16.854,39.895 15.801,68.798 
		19.351,39.642 41.495,17.33 93.162,18.472 42.244,14.67 34.374,6.227 39.495,15.682 	"/>
	<polygon fill-rule="evenodd" clip-rule="evenodd" fill="#FFFFFF" points="159.329,17.081 133.636,18.544 158.075,14.544 
		166.845,4.581 161.203,15.431 182.344,36.857 192.275,31.347 183.595,39.772 184.51,69.757 197.263,61.144 184.597,72.532 
		182.352,100.815 183.343,72.048 181.343,39.898 	"/>
	<polygon fill-rule="evenodd" clip-rule="evenodd" fill="#FFFFFF" points="129.25,61.837 95.277,90.387 132.695,62.716 
		129.773,33.297 	"/>
	<polygon fill-rule="evenodd" clip-rule="evenodd" fill="#FFFFFF" points="19.459,74.492 4.015,76.333 18.49,75.908 85.158,93.908 
		116.483,131.453 86.167,92.329 	"/>
	<polygon fill-rule="evenodd" clip-rule="evenodd" fill="#FFFFFF" points="75.093,164.158 70.012,177.307 76.91,166.554 
		124.447,142.72 175.873,147.658 122.811,140.447 	"/>
	<polygon fill-rule="evenodd" clip-rule="evenodd" fill="#FFFFFF" points="162.359,137.106 195.544,134.591 195.443,136.771 	"/>
	<polygon fill-rule="evenodd" clip-rule="evenodd" fill="#999999" points="32.27,72.961 22.115,71.49 36.482,70.856 83.641,83.281 
		122.418,56.784 126.141,35.278 127.337,60.834 86.578,90.434 	"/>
	<polygon fill-rule="evenodd" clip-rule="evenodd" fill="#999999" points="122.069,135.514 96.332,98.261 126.292,131.463 
		171.325,139.704 195.41,140.216 168.748,143.095 	"/>
	<polygon fill-rule="evenodd" clip-rule="evenodd" fill="#999999" points="73.4,162.799 120.076,136.09 69.508,158.85 
		57.501,177.61 43.112,179.386 21.225,161.761 41.192,181.999 63.832,182.845 	"/>
	<polygon fill-rule="evenodd" clip-rule="evenodd" fill="#999999" points="156.449,177.109 110.667,181.67 67.814,182.993 
		110.674,184.593 159.369,181.999 182.352,158.705 181.779,148.613 178.464,157.333 	"/>
	<polygon fill-rule="evenodd" clip-rule="evenodd" fill="#FFFFFF" points="17.87,131.355 9.351,130.018 17.996,134.144 
		18.237,157.463 19.996,133.888 17.841,113.099 	"/>
	<ellipse fill-rule="evenodd" clip-rule="evenodd" fill="#999999" cx="51.443" cy="38.403" rx="6.13" ry="6.212"/>
	<path fill-rule="evenodd" clip-rule="evenodd" fill="#999999" d="M95.601,36.503c1.795,0,3.254,1.477,3.254,3.297
		c0,1.816-1.459,3.294-3.254,3.294c-1.794,0-3.25-1.477-3.25-3.294C92.351,37.981,93.807,36.503,95.601,36.503z"/>
	<path fill-rule="evenodd" clip-rule="evenodd" fill="#999999" d="M65.076,64.647c1.935,0,3.503,1.589,3.503,3.55
		c0,1.956-1.567,3.545-3.503,3.545c-1.931,0-3.503-1.589-3.503-3.545C61.573,66.236,63.144,64.647,65.076,64.647z"/>
	<ellipse fill-rule="evenodd" clip-rule="evenodd" fill="#999999" cx="164.648" cy="79.095" rx="2.749" ry="2.787"/>
	<path fill-rule="evenodd" clip-rule="evenodd" fill="#999999" d="M152.518,38.277c2.692,0,4.88,2.216,4.88,4.944
		c0,2.731-2.187,4.944-4.88,4.944c-2.695,0-4.879-2.213-4.879-4.944C147.639,40.493,149.823,38.277,152.518,38.277z"/>
	<ellipse fill-rule="evenodd" clip-rule="evenodd" fill="#999999" cx="137.881" cy="112.564" rx="7.502" ry="7.605"/>
	<path fill-rule="evenodd" clip-rule="evenodd" fill="#999999" d="M39.815,99.889c0.826,0,1.5,0.685,1.5,1.521
		c0,0.839-0.674,1.524-1.5,1.524c-0.829,0-1.499-0.685-1.499-1.524C38.316,100.574,38.986,99.889,39.815,99.889z"/>
	<path fill-rule="evenodd" clip-rule="evenodd" fill="#999999" d="M82.718,119.417c2.415,0,4.379,1.985,4.379,4.436
		c0,2.45-1.964,4.435-4.379,4.435c-2.418,0-4.378-1.985-4.378-4.435C78.341,121.402,80.301,119.417,82.718,119.417z"/>
	<path fill-rule="evenodd" clip-rule="evenodd" fill="#999999" d="M37.812,135.135c3.593,0,6.504,2.951,6.504,6.59
		c0,3.643-2.911,6.591-6.504,6.591c-3.593,0-6.505-2.948-6.505-6.591C31.307,138.086,34.219,135.135,37.812,135.135z"/>
	<path fill-rule="evenodd" clip-rule="evenodd" fill="#999999" d="M145.513,164.039c2.418,0,4.379,1.989,4.379,4.436
		c0,2.45-1.961,4.439-4.379,4.439c-2.418,0-4.379-1.989-4.379-4.439C141.134,166.028,143.095,164.039,145.513,164.039z"/>
	<ellipse fill-rule="evenodd" clip-rule="evenodd" fill="#999999" cx="113.741" cy="162.898" rx="2.624" ry="2.661"/>
</g>
<g>
	<path fill-rule="evenodd" clip-rule="evenodd" fill="#1A1A1A" d="M100.004,166.874c37.787,0,68.614-30.827,68.614-68.614
		s-30.827-68.614-68.614-68.614S31.397,60.473,31.397,98.261S62.217,166.874,100.004,166.874z"/>
	<path fill-rule="evenodd" clip-rule="evenodd" fill="#333333" d="M100.004,162.445c35.351,0,64.185-28.834,64.185-64.185
		s-28.834-64.185-64.185-64.185S35.826,62.91,35.826,98.261S64.653,162.445,100.004,162.445z"/>
	<g>
		<linearGradient id="SVGID_1_" gradientUnits="userSpaceOnUse" x1="72.496" y1="122.6424" x2="4.3506" y2="83.2987">
			<stop  offset="0" style="stop-color:#FFCC2E"/>
			<stop  offset="1" style="stop-color:#F9ED3D"/>
		</linearGradient>
		<path fill-rule="evenodd" clip-rule="evenodd" fill="url(#SVGID_1_)" d="M91.146,113.594c-5.384-3.111-8.449-8.7-8.591-14.495
			l-42.578-1.106c-0.239,20.884,10.503,41.288,29.878,52.474L91.146,113.594z"/>
		<linearGradient id="SVGID_2_" gradientUnits="userSpaceOnUse" x1="206.2069" y1="159.5649" x2="145.5489" y2="124.544">
			<stop  offset="0" style="stop-color:#FFCC2E"/>
			<stop  offset="1" style="stop-color:#F9ED3D"/>
		</linearGradient>
		<path fill-rule="evenodd" clip-rule="evenodd" fill="url(#SVGID_2_)" d="M117.754,98.213c0.007,6.224-3.303,11.683-8.257,14.692
			l20.33,37.432c18.214-10.244,30.512-29.748,30.512-52.124H117.754z"/>
		<linearGradient id="SVGID_3_" gradientUnits="userSpaceOnUse" x1="135.579" y1="79.1749" x2="73.1275" y2="43.1185">
			<stop  offset="0" style="stop-color:#FFCC2E"/>
			<stop  offset="1" style="stop-color:#F9ED3D"/>
		</linearGradient>
		<path fill-rule="evenodd" clip-rule="evenodd" fill="url(#SVGID_3_)" d="M89.883,82.345c5.391-3.113,11.765-2.976,16.85-0.191
			l22.253-36.334c-17.975-10.646-41.021-11.547-60.403-0.355L89.883,82.345z"/>
		<linearGradient id="SVGID_4_" gradientUnits="userSpaceOnUse" x1="140.2103" y1="121.4746" x2="82.3546" y2="88.0716">
			<stop  offset="0" style="stop-color:#FFCC2E"/>
			<stop  offset="1" style="stop-color:#F9ED3D"/>
		</linearGradient>
		<path fill-rule="evenodd" clip-rule="evenodd" fill="url(#SVGID_4_)" d="M110.351,104.238c3.303-5.719,1.343-13.028-4.375-16.332
			c-5.719-3.303-13.022-1.338-16.325,4.382c-3.296,5.712-1.345,13.022,4.375,16.325S107.047,109.951,110.351,104.238z"/>
	</g>
	<path opacity="0.5" fill-rule="evenodd" clip-rule="evenodd" fill="#FFFFFF" d="M69.26,148.339
		c-15.075-10.994-23.367-28.41-23.162-46.209l30.969,0.921c-0.204-0.969-0.32-1.965-0.341-2.962L41.19,99.052
		C40.972,118.665,51.059,137.828,69.26,148.339z"/>
	<path opacity="0.5" fill-rule="evenodd" clip-rule="evenodd" fill="#FFFFFF" d="M90.845,92.972
		c-2.716,4.695-1.099,10.707,3.591,13.416c0.655,0.376,1.324,0.669,2.013,0.888c-2.86-3.078-3.521-7.774-1.31-11.609
		c2.334-4.046,7.124-5.8,11.41-4.484c-0.656-0.696-1.413-1.31-2.287-1.809C99.568,86.666,93.562,88.268,90.845,92.972z"/>
	<path opacity="0.5" fill-rule="evenodd" clip-rule="evenodd" fill="#FFFFFF" d="M76.283,49.199
		c14.256-8.236,30.887-8.612,44.898-2.484l0.211-0.341c-14.973-8.879-34.17-9.623-50.31-0.301l17.743,30.724
		c0.874-0.512,1.775-0.907,2.696-1.208L76.283,49.199z"/>
	<path opacity="0.5" fill-rule="evenodd" clip-rule="evenodd" fill="#FFFFFF" d="M111.149,113.8l19.109,34.852l-14.23-32.676
		c3.582-2.176,7.869-9.389,7.862-13.894c7.364-0.812,18.316-0.935,34.579-2.893l-39.281,0.007
		C120.914,104.027,116.137,112.619,111.149,113.8z"/>
	<path opacity="0.3" fill-rule="evenodd" clip-rule="evenodd" fill="#FFFFFF" d="M100.004,34.076c20.139,0,38.109,9.28,49.874,23.79
		c-11.718-12.611-28.452-20.514-47.035-20.514c-35.453,0-64.183,28.731-64.183,64.178c0,15.314,5.363,29.365,14.304,40.394
		c-10.639-11.451-17.144-26.8-17.144-43.663C35.819,62.806,64.551,34.076,100.004,34.076z"/>
</g>
</svg>
