<?xml version="1.0" encoding="utf-8"?>
<!-- Generator: Adobe Illustrator 17.1.0, SVG Export Plug-In . SVG Version: 6.00 Build 0)  -->
<!DOCTYPE svg PUBLIC "-//W3C//DTD SVG 1.1//EN" "http://www.w3.org/Graphics/SVG/1.1/DTD/svg11.dtd">
<svg version="1.1" id="Layer_1" xmlns="http://www.w3.org/2000/svg" xmlns:xlink="http://www.w3.org/1999/xlink" x="0px" y="0px"
	 viewBox="0 0 263.271 41.193" enable-background="new 0 0 263.271 41.193" xml:space="preserve">
<g>
	<g>
		
			<polygon fill-rule="evenodd" clip-rule="evenodd" fill="none" stroke="#666666" stroke-width="2.1535" stroke-miterlimit="22.9256" points="
			6.466,2.923 22.328,2.923 27.297,3.966 30.671,2.923 45.831,2.33 49.037,6.244 48.368,2.231 65.142,1.574 76.183,2.923 
			83.017,2.923 84.555,9.619 84.776,2.923 86.641,2.923 86.641,8.024 89.714,2.923 109.919,2.923 116.421,3.783 121.205,2.923 
			136.907,2.923 138.887,9.231 140.235,2.923 141.777,2.923 140.788,7.575 146.153,2.923 147.457,2.923 165.737,1.084 
			180.459,2.923 196.952,2.086 197.176,7.901 202.635,1.797 204.257,1.714 200.668,5.505 206.278,1.612 211.864,1.328 
			241.922,2.923 256.858,2.923 262.194,8.26 262.194,12.774 261.827,15.756 251.276,18.394 261.373,19.449 261.273,20.258 
			262.194,27.741 262.194,32.795 256.858,38.132 225.174,38.132 218.671,39.481 210.451,38.132 201.671,38.132 195.333,32.317 
			198.523,38.132 196.865,38.132 192.39,30.477 193.356,38.132 181.868,38.132 177.827,40.103 153.826,38.822 145.635,27.756 
			146.421,38.427 140.892,38.132 117.092,38.132 107.523,36.782 103.82,37.122 101.484,31.335 99.741,37.496 92.801,38.132 
			47.287,36.905 28.662,37.719 27.201,30.968 22.321,37.995 19.193,38.132 6.466,38.132 1.129,32.795 1.62,28.516 1.129,27.351 
			1.129,20.082 1.62,18.487 1.45,17.318 6.441,14.501 1.129,14.516 1.129,13.681 8.342,13.489 1.129,11.922 1.129,8.26 		"/>
		<path fill-rule="evenodd" clip-rule="evenodd" fill="#999999" d="M6.466,2.923h15.862l4.969,1.043l3.374-1.043l15.16-0.594
			l3.206,3.915l-0.669-4.013l16.773-0.657l11.041,1.35h6.834l1.538,6.695l0.221-6.695h1.865v5.101l3.073-5.101h20.205l6.502,0.859
			l4.784-0.859h15.702l1.979,6.308l1.349-6.308h1.542l-0.989,4.651l5.365-4.651h1.304l18.28-1.84l14.722,1.84l16.493-0.838
			l0.224,5.816l5.459-6.105l1.622-0.082l-3.589,3.791l5.61-3.894l5.586-0.284l30.058,1.595h14.936l5.337,5.337v4.514l-0.367,2.982
			l-10.551,2.637l10.097,1.056l-0.1,0.809l0.921,7.483v5.055l-5.337,5.336h-31.684l-6.503,1.349l-8.22-1.349h-8.78l-6.338-5.815
			l3.189,5.815h-1.657l-4.476-7.655l0.966,7.655h-11.487l-4.041,1.971l-24.001-1.281l-8.191-11.065l0.786,10.671l-5.529-0.295h-23.8
			l-9.569-1.35l-3.702,0.339l-2.337-5.787l-1.742,6.161l-6.94,0.636l-45.514-1.227l-18.625,0.813l-1.461-6.75l-4.88,7.027
			l-3.129,0.137H6.466l-5.337-5.336l0.491-4.279l-0.491-1.166v-7.269l0.491-1.595l-0.17-1.169l4.99-2.817l-5.312,0.015v-0.835
			l7.213-0.192l-7.213-1.566V8.26L6.466,2.923z"/>
	</g>
	<path fill-rule="evenodd" clip-rule="evenodd" fill="#B3B3B3" d="M10.133,6.112H25.53l4.823,0.855l3.275-0.855L48.525,5.62
		l0.513,0.625l-0.106-0.638l18.159-0.6l10.718,1.106h5.941l0.806,3.507l0.116-3.507h1.97v1.912l1.152-1.912h22.762l6.313,0.704
		l4.644-0.704h16.396l0.979,3.119l0.667-3.119h1.546l-0.311,1.463l1.688-1.463h4.518l17.744-1.508l14.292,1.508l18.047-0.774
		l0.099,2.564l2.387-2.67l1.423-0.061l-0.317,0.335l0.494-0.343l8.354-0.358l29.177,1.308h14.498l5.181,4.373v3.7l-0.368,2.527
		l-6.727,1.682l6.384,0.667l-0.184,1.257l0.895,6.133v4.143l-5.181,4.374h-30.756l-6.311,1.105l-7.98-1.105h-9.922l-2.889-2.65
		l1.454,2.65h-1.773l-2.625-4.491l0.566,4.491h-12.559l-3.923,1.615l-25.146-1.133l-5.694-7.693l0.55,7.461l-5.563-0.25h-23.104
		l-9.289-1.106l-5.553,0.43l-1.193-2.956l-0.881,3.116l-6.663,0.516l-44.182-1.005l-21.735,0.801l-0.821-3.795l-2.726,3.925
		l-1.989,0.074H10.133l-5.181-4.374l0.476-3.507l-0.476-0.955v-5.958l0.476-1.307l-0.476-2.765v-0.761l1.488-0.84l-1.488,0.005
		V13.58l3.39-0.091l-3.39-0.736v-2.268L10.133,6.112z"/>
	<polygon fill-rule="evenodd" clip-rule="evenodd" fill="#D6D6D6" points="4.952,10.485 10.133,6.112 6.466,2.923 1.129,8.26 	"/>
	<polygon fill-rule="evenodd" clip-rule="evenodd" fill="#D6D6D6" points="253.191,6.112 258.371,10.485 262.194,8.26 
		256.858,2.923 	"/>
	<polygon fill-rule="evenodd" clip-rule="evenodd" fill="#CCCCCC" points="25.53,6.112 22.328,2.923 6.466,2.923 10.133,6.112 	"/>
	<path fill-rule="evenodd" clip-rule="evenodd" fill="#CCCCCC" d="M30.671,2.923l2.958,3.188L48.525,5.62l-2.693-3.29L30.671,2.923
		L30.671,2.923z M48.931,5.606l-0.563-3.375l16.773-0.657l1.948,3.432L48.931,5.606z"/>
	<path fill-rule="evenodd" clip-rule="evenodd" fill="#CCCCCC" d="M76.183,2.923l1.625,3.188h5.941l-0.732-3.188H76.183
		L76.183,2.923z M84.671,6.112h1.97V2.923h-1.865L84.671,6.112L84.671,6.112z M87.793,6.112h22.762l-0.636-3.188H89.714
		L87.793,6.112z"/>
	<path fill-rule="evenodd" clip-rule="evenodd" fill="#CCCCCC" d="M121.205,2.923l0.307,3.188h16.396l-1-3.188H121.205
		L121.205,2.923z M139.554,6.112h1.546l0.678-3.188h-1.542L139.554,6.112L139.554,6.112z M142.476,6.112h4.518l0.463-3.188h-1.304
		L142.476,6.112z"/>
	<path fill-rule="evenodd" clip-rule="evenodd" fill="#CCCCCC" d="M180.459,2.923l-1.429,3.188l18.047-0.774l-0.125-3.252
		L180.459,2.923L180.459,2.923z M199.563,5.232l1.423-0.061l3.271-3.456l-1.622,0.082L199.563,5.232L199.563,5.232z M201.162,5.163
		l5.116-3.551l5.586-0.284l-2.349,3.476L201.162,5.163z"/>
	<polygon fill-rule="evenodd" clip-rule="evenodd" fill="#CCCCCC" points="241.234,2.887 238.693,6.112 253.191,6.112 
		256.858,2.923 241.922,2.923 	"/>
	<polygon fill-rule="evenodd" clip-rule="evenodd" fill="#D6D6D6" points="33.629,6.112 30.671,2.923 27.297,3.966 30.354,6.966 	
		"/>
	<polygon fill-rule="evenodd" clip-rule="evenodd" fill="#D6D6D6" points="116.421,3.783 116.867,6.816 121.512,6.112 
		121.205,2.923 	"/>
	<polygon fill-rule="evenodd" clip-rule="evenodd" fill="#D6D6D6" points="147.457,2.923 146.994,6.112 164.738,4.604 
		165.737,1.084 	"/>
	<polygon fill-rule="evenodd" clip-rule="evenodd" fill="#C0C0C0" points="30.354,6.966 27.297,3.966 22.328,2.923 25.53,6.112 	"/>
	<polygon fill-rule="evenodd" clip-rule="evenodd" fill="#C0C0C0" points="65.142,1.574 67.09,5.006 77.808,6.112 76.183,2.923 	"/>
	<polygon fill-rule="evenodd" clip-rule="evenodd" fill="#C0C0C0" points="109.919,2.923 110.555,6.112 116.867,6.816 
		116.421,3.783 	"/>
	<polygon fill-rule="evenodd" clip-rule="evenodd" fill="#C0C0C0" points="165.737,1.084 164.738,4.604 179.03,6.112 180.459,2.923 
			"/>
	<polygon fill-rule="evenodd" clip-rule="evenodd" fill="#C0C0C0" points="211.864,1.328 209.516,4.804 238.693,6.112 
		241.234,2.887 	"/>
	<polygon fill-rule="evenodd" clip-rule="evenodd" fill="#A3A3A3" points="1.129,20.082 4.952,20.174 5.428,18.867 1.62,18.487 	"/>
	<polygon fill-rule="evenodd" clip-rule="evenodd" fill="#8D8D8D" points="1.62,18.487 5.428,18.867 4.952,16.102 4.027,15.863 
		1.45,17.318 	"/>
	<polygon fill-rule="evenodd" clip-rule="evenodd" fill="#8D8D8D" points="4.952,26.131 1.129,27.351 1.62,28.516 5.428,27.087 	"/>
	<polygon fill-rule="evenodd" clip-rule="evenodd" fill="#8D8D8D" points="4.952,30.594 1.129,32.795 6.466,38.132 10.133,34.967 	
		"/>
	<path fill-rule="evenodd" clip-rule="evenodd" fill="#8D8D8D" d="M257.477,20.318l3.797-0.06l0.1-0.809l-3.713-0.388
		L257.477,20.318L257.477,20.318z M261.827,15.756l0.367-2.982l-3.823,1.411l-0.368,2.527L261.827,15.756z"/>
	<polygon fill-rule="evenodd" clip-rule="evenodd" fill="#A3A3A3" points="261.273,20.258 257.477,20.318 258.371,26.451 
		262.194,27.741 	"/>
	<polygon fill-rule="evenodd" clip-rule="evenodd" fill="#8D8D8D" points="262.194,32.795 258.371,30.594 253.191,34.967 
		256.858,38.132 	"/>
	<path fill-rule="evenodd" clip-rule="evenodd" fill="#8D8D8D" d="M107.523,36.782l0.707-2.921l-5.553,0.43l1.144,2.831
		L107.523,36.782L107.523,36.782z M100.603,34.451l-6.663,0.516l-1.139,3.165l6.94-0.636L100.603,34.451z"/>
	<polygon fill-rule="evenodd" clip-rule="evenodd" fill="#8D8D8D" points="176.475,36.583 177.827,40.103 181.868,38.132 
		180.398,34.967 	"/>
	<polygon fill-rule="evenodd" clip-rule="evenodd" fill="#8D8D8D" points="216.124,36.073 218.671,39.481 225.174,38.132 
		222.435,34.967 	"/>
	<path fill-rule="evenodd" clip-rule="evenodd" fill="#8D8D8D" d="M47.287,36.905l2.471-2.943l-21.735,0.801l0.64,2.956
		L47.287,36.905L47.287,36.905z M24.476,34.894l-1.989,0.074l-3.88,3.165h0.586l3.129-0.137L24.476,34.894z"/>
	<polygon fill-rule="evenodd" clip-rule="evenodd" fill="#757575" points="108.23,33.861 107.523,36.782 117.092,38.132 
		117.519,34.967 	"/>
	<path fill-rule="evenodd" clip-rule="evenodd" fill="#757575" d="M140.622,34.967l0.27,3.165l5.529,0.295l-0.236-3.209
		L140.622,34.967L140.622,34.967z M153.826,38.822l24.001,1.281l-1.352-3.521l-25.146-1.133L153.826,38.822z"/>
	<polygon fill-rule="evenodd" clip-rule="evenodd" fill="#757575" points="208.144,34.967 210.451,38.132 218.671,39.481 
		216.124,36.073 	"/>
	<polygon fill-rule="evenodd" clip-rule="evenodd" fill="#808080" points="18.607,38.132 22.486,34.967 10.133,34.967 6.466,38.132 
			"/>
	<polygon fill-rule="evenodd" clip-rule="evenodd" fill="#808080" points="49.758,33.962 47.287,36.905 92.801,38.132 93.94,34.967 
			"/>
	<polygon fill-rule="evenodd" clip-rule="evenodd" fill="#808080" points="117.519,34.967 117.092,38.132 140.892,38.132 
		140.622,34.967 	"/>
	<path fill-rule="evenodd" clip-rule="evenodd" fill="#808080" d="M180.398,34.967l1.471,3.165h11.487l-0.399-3.165H180.398
		L180.398,34.967z M196.865,38.132h1.657l-1.735-3.165h-1.773L196.865,38.132L196.865,38.132z M201.671,38.132l-3.449-3.165h9.922
		l2.308,3.165H201.671z"/>
	<polygon fill-rule="evenodd" clip-rule="evenodd" fill="#808080" points="222.435,34.967 225.174,38.132 256.858,38.132 
		253.191,34.967 	"/>
	<polygon fill-rule="evenodd" clip-rule="evenodd" fill="#666666" points="145.635,27.756 146.421,38.427 148.577,36.798 
		153.826,38.822 151.329,35.45 	"/>
	<path fill-rule="evenodd" clip-rule="evenodd" fill="#666666" d="M6.059,12.993l20.545,3.132l2.648,7.703l18.505-3.717l2.919-8.172
		l-3.088-7.464l1.014-0.843l3.598,8.292l-4.006,8.607l10.03,4.337L68.501,13.82l0.119-0.126l0.172-0.018l12.467-1.331l2.368-2.902
		l0.445-1.926l0.482,2.102l-1.861,2.596L99.09,10.75l0.102-0.009l11.32,4.059l27.093,1.807l0.406-10.164l1.449,0.108l-0.951,10.428
		l7.186,10.054l12.005-11.994l-6.023-5.341l-10.889-2.123l1.178-1.022l9.986,2.234l0.136,0.02l0.105,0.094l6.36,5.641l39.355-1.686
		l-0.732-4.955l-0.044-1.131l1.288-0.262l1.048,6.148l10.74,8.994l15.051-4.021l0.056-0.014l0.059,0.001l30.515-0.376l0.222,1.658
		l-30.689-0.343l-23.213,5.59l-5.649,9.295l-1.225-1.124l6.23-8.875l0.1-0.13l0.164-0.039l7.959-1.519l-11.372-8.436l-39.397,3.267
		l-6.256,4.716l11.901,7.363l27.727,1.813l0.307,2.436l-28.2-3.316l-0.122-0.006l-0.102-0.063l-11.978-7.912l-5.824,7.271
		l-0.835-1.129l0.154,2.099L137.77,17.56l-27.21-1.813L96.228,26.428l5.256,4.907l-0.628,2.22l-5.569-6.681l-36.89-1.343
		l-0.095-0.004l-0.079-0.035l-10.172-4.481l-18.934,3.475l-1.505,8.379l-1.774,0.065l2.857-8.953l-3.369-6.479L4.123,13.601
		L6.059,12.993L6.059,12.993z M81.568,13.257l-0.042,0.004l-12.464,1.33L58.892,25.076l36.423,0.86l15.104-10.601l-11.717-2.967
		L81.568,13.257z"/>
	<polygon fill-rule="evenodd" clip-rule="evenodd" fill="#999999" points="258.371,14.185 258.371,10.485 255.988,14.483 
		224.827,13.992 210.719,17.673 199.468,12.657 210.208,21.651 225.373,17.617 255.888,17.241 258.003,16.712 	"/>
	<polygon fill-rule="evenodd" clip-rule="evenodd" fill="#999999" points="29.252,23.828 47.757,20.111 50.676,11.939 
		45.606,18.539 30.516,21.238 27.939,14.49 5.979,12.098 4.952,10.485 4.952,12.752 6.059,12.993 26.604,16.125 	"/>
	<polygon fill-rule="evenodd" clip-rule="evenodd" fill="#999999" points="25.838,32.931 28.695,23.978 24.742,31.048 
		21.798,32.275 10.634,32.152 6.893,29.085 5.428,27.087 4.952,30.594 10.133,34.967 22.486,34.967 24.476,34.894 	"/>
	<polygon fill-rule="evenodd" clip-rule="evenodd" fill="#999999" points="66.276,11.606 57.443,22.402 48.193,20.53 58.224,24.867 
		68.501,13.82 68.62,13.694 68.792,13.676 81.259,12.345 83.627,9.443 80.568,11.483 	"/>
	<polygon fill-rule="evenodd" clip-rule="evenodd" fill="#999999" points="93.019,23.075 58.892,25.076 95.315,25.937 
		110.418,15.335 	"/>
	<polygon fill-rule="evenodd" clip-rule="evenodd" fill="#999999" points="99.192,10.741 110.512,14.8 137.605,16.607 
		137.903,9.145 136.387,14.61 111.236,12.77 99.336,8.599 82.693,12.214 99.09,10.75 	"/>
	<polygon fill-rule="evenodd" clip-rule="evenodd" fill="#999999" points="108.404,31.044 104.357,31.535 102.761,28.958 
		96.228,26.428 101.484,31.335 102.677,34.291 108.23,33.861 117.519,34.967 140.622,34.967 146.185,35.218 145.789,29.855 
		144.718,33.375 118.219,31.903 	"/>
	<polygon fill-rule="evenodd" clip-rule="evenodd" fill="#999999" points="146.47,28.885 151.329,35.45 176.475,36.583 
		180.398,34.967 192.956,34.967 179.68,32.513 175.386,34.231 153.304,32.513 	"/>
	<polygon fill-rule="evenodd" clip-rule="evenodd" fill="#999999" points="152.761,21.301 164.662,28.664 192.39,30.477 
		195.015,34.967 196.787,34.967 195.333,32.317 201.564,23.442 201.663,23.312 201.827,23.272 209.786,21.753 199.923,20.737 
		193.789,26.135 166.185,25.277 	"/>
	<polygon fill-rule="evenodd" clip-rule="evenodd" fill="#999999" points="145.694,27.033 157.699,15.039 146.311,21.963 
		138.509,16.979 	"/>
	<polygon fill-rule="evenodd" clip-rule="evenodd" fill="#999999" points="208.143,31.781 196.558,33.44 198.222,34.967 
		208.144,34.967 216.124,36.073 222.435,34.967 253.191,34.967 258.371,30.594 258.371,26.451 256.358,29.572 249.609,31.535 
		222.987,31.044 215.627,33.13 	"/>
	<polygon fill-rule="evenodd" clip-rule="evenodd" fill="#999999" points="158.554,14.542 197.908,12.856 197.176,7.901 
		195.261,10.8 159.806,11.414 153.918,7.855 141.966,6.553 151.952,8.787 152.088,8.807 152.193,8.901 	"/>
	<polygon fill-rule="evenodd" clip-rule="evenodd" fill="#FFFFFF" points="9.428,6.112 5.514,10.011 10.501,6.603 24.917,6.112 
		10.317,5.713 6.999,3.388 	"/>
	<polygon fill-rule="evenodd" clip-rule="evenodd" fill="#FFFFFF" points="32.978,5.988 30.354,6.966 33.621,6.57 47.114,5.666 
		33.867,5.803 31.011,3.291 	"/>
	<polygon fill-rule="evenodd" clip-rule="evenodd" fill="#FFFFFF" points="66.275,4.69 52.359,5.492 67.218,5.318 76.792,6.006 
		67.571,4.721 65.488,2.185 	"/>
	<polygon fill-rule="evenodd" clip-rule="evenodd" fill="#FFFFFF" points="86.641,8.024 86.641,6.112 86.339,8.85 87.965,6.55 
		110.539,6.281 116.239,6.746 110.938,5.936 109.989,3.279 110.201,5.782 87.793,6.112 	"/>
	<polygon fill-rule="evenodd" clip-rule="evenodd" fill="#FFFFFF" points="121.184,5.917 118.279,6.602 121.675,6.469 
		135.998,6.112 121.798,5.825 121.264,3.528 	"/>
	<polygon fill-rule="evenodd" clip-rule="evenodd" fill="#FFFFFF" points="164.738,4.604 148.517,5.982 164.916,5.239 
		179.331,6.712 191.848,5.562 179.03,6.112 165.529,4.688 165.595,1.586 	"/>
	<polygon fill-rule="evenodd" clip-rule="evenodd" fill="#FFFFFF" points="253.601,6.458 257.333,9.608 252.693,6.526 
		238.693,6.112 227.963,5.63 238.34,5.483 240.757,3.492 239.628,5.422 252.693,5.729 255.829,3.817 	"/>
	<polygon fill-rule="evenodd" clip-rule="evenodd" fill="#FFFFFF" points="209.311,4.472 202.108,5.122 209.847,5.1 221.984,5.363 
		210.491,4.548 211.626,1.68 	"/>
	<polygon fill-rule="evenodd" clip-rule="evenodd" fill="#FFFFFF" points="28.306,23.229 25.326,17.499 5.737,13.898 24.863,18.204 
			"/>
	<polygon fill-rule="evenodd" clip-rule="evenodd" fill="#FFFFFF" points="52.199,11.923 48.788,19.253 53.025,11.891 50.758,8.603 
			"/>
	<polygon fill-rule="evenodd" clip-rule="evenodd" fill="#FFFFFF" points="58.223,25.493 48.051,21.012 29.117,24.487 27.86,31.482 
		29.523,24.95 47.956,21.606 58.292,26.238 94.853,27.342 100.246,32.824 95.286,26.875 58.397,25.532 58.302,25.528 	"/>
	<polygon fill-rule="evenodd" clip-rule="evenodd" fill="#FFFFFF" points="69.523,15.203 81.872,13.908 98.782,13.056 
		108.343,14.81 98.701,12.369 81.568,13.257 81.526,13.262 69.063,14.592 60.44,23.481 	"/>
	<polygon fill-rule="evenodd" clip-rule="evenodd" fill="#FFFFFF" points="110.56,15.747 97.126,25.758 110.757,16.319 
		137.303,18.206 144.383,27.699 137.77,17.56 	"/>
	<polygon fill-rule="evenodd" clip-rule="evenodd" fill="#FFFFFF" points="152.292,22.321 164.04,30.341 181.458,31.591 
		164.496,29.596 164.374,29.59 164.272,29.526 152.294,21.615 146.907,28.339 	"/>
	<polygon fill-rule="evenodd" clip-rule="evenodd" fill="#FFFFFF" points="159.255,17.031 198.329,14.21 207.214,19.845 
		198.414,13.317 159.017,16.584 153.675,20.612 	"/>
	<polygon fill-rule="evenodd" clip-rule="evenodd" fill="#FFFFFF" points="157.699,15.039 151.677,9.698 140.788,7.575 
		151.228,10.17 	"/>
	<polygon fill-rule="evenodd" clip-rule="evenodd" fill="#FFFFFF" points="225.42,18.555 202.207,24.146 197.461,31.955 
		202.748,24.823 225.691,19.24 252.241,18.855 	"/>
	<polygon fill-rule="evenodd" clip-rule="evenodd" fill="#FFFFFF" points="5.763,18.828 5.12,17.08 5.428,18.867 4.659,19.871 
		1.442,20.089 4.567,20.638 4.567,25.852 2.211,27.005 4.721,26.558 5.428,27.087 4.952,26.131 4.952,20.347 	"/>
	<polygon fill-rule="evenodd" clip-rule="evenodd" fill="#FFFFFF" points="258.802,26.21 257.568,20.939 257.943,26.67 
		257.79,30.351 254.266,34.059 258.372,31.148 261.996,32.682 258.741,30.351 258.741,27.13 261.075,27.363 	"/>
	<circle fill-rule="evenodd" clip-rule="evenodd" fill="#999999" cx="25.429" cy="22.283" r="1.012"/>
	<circle fill-rule="evenodd" clip-rule="evenodd" fill="#999999" cx="14.478" cy="22.743" r="1.594"/>
	<circle fill-rule="evenodd" clip-rule="evenodd" fill="#999999" cx="36.806" cy="14.156" r="1.104"/>
	<circle fill-rule="evenodd" clip-rule="evenodd" fill="#999999" cx="28.218" cy="11.702" r="0.613"/>
	<circle fill-rule="evenodd" clip-rule="evenodd" fill="#999999" cx="43.798" cy="28.509" r="0.736"/>
	<circle fill-rule="evenodd" clip-rule="evenodd" fill="#999999" cx="46.129" cy="10.23" r="0.859"/>
	<circle fill-rule="evenodd" clip-rule="evenodd" fill="#999999" cx="59.134" cy="11.948" r="1.349"/>
	<circle fill-rule="evenodd" clip-rule="evenodd" fill="#999999" cx="56.067" cy="19.186" r="0.736"/>
	<circle fill-rule="evenodd" clip-rule="evenodd" fill="#999999" cx="78.763" cy="18.818" r="0.858"/>
	<circle fill-rule="evenodd" clip-rule="evenodd" fill="#999999" cx="92.994" cy="17.836" r="0.858"/>
	<circle fill-rule="evenodd" clip-rule="evenodd" fill="#999999" cx="116.058" cy="24.706" r="2.331"/>
	<circle fill-rule="evenodd" clip-rule="evenodd" fill="#999999" cx="130.289" cy="22.743" r="0.859"/>
	<circle fill-rule="evenodd" clip-rule="evenodd" fill="#999999" cx="63.182" cy="31.453" r="0.981"/>
	<circle fill-rule="evenodd" clip-rule="evenodd" fill="#999999" cx="80.604" cy="31.454" r="1.717"/>
	<circle fill-rule="evenodd" clip-rule="evenodd" fill="#999999" cx="91.645" cy="31.454" r="0.736"/>
	<circle fill-rule="evenodd" clip-rule="evenodd" fill="#999999" cx="31.53" cy="30.718" r="0.491"/>
	<circle fill-rule="evenodd" clip-rule="evenodd" fill="#999999" cx="16.799" cy="28.623" r="0.85"/>
	<circle fill-rule="evenodd" clip-rule="evenodd" fill="#999999" cx="134.579" cy="29.735" r="0.491"/>
	<circle fill-rule="evenodd" clip-rule="evenodd" fill="#999999" cx="126.973" cy="10.352" r="1.227"/>
	<circle fill-rule="evenodd" clip-rule="evenodd" fill="#999999" cx="119.796" cy="9.799" r="0.429"/>
	<circle fill-rule="evenodd" clip-rule="evenodd" fill="#999999" cx="108.878" cy="9.431" r="0.675"/>
	<circle fill-rule="evenodd" clip-rule="evenodd" fill="#999999" cx="91.027" cy="8.143" r="0.736"/>
	<circle fill-rule="evenodd" clip-rule="evenodd" fill="#999999" cx="145.437" cy="13.602" r="0.92"/>
	<circle fill-rule="evenodd" clip-rule="evenodd" fill="#999999" cx="140.775" cy="15.933" r="0.92"/>
	<circle fill-rule="evenodd" clip-rule="evenodd" fill="#999999" cx="151.02" cy="14.523" r="1.227"/>
	<circle fill-rule="evenodd" clip-rule="evenodd" fill="#999999" cx="167.703" cy="20.288" r="1.349"/>
	<circle fill-rule="evenodd" clip-rule="evenodd" fill="#999999" cx="181.996" cy="19.491" r="0.797"/>
	<circle fill-rule="evenodd" clip-rule="evenodd" fill="#999999" cx="192.854" cy="18.203" r="0.736"/>
	<circle fill-rule="evenodd" clip-rule="evenodd" fill="#999999" cx="188.376" cy="25.257" r="1.533"/>
	<circle fill-rule="evenodd" clip-rule="evenodd" fill="#999999" cx="175.31" cy="23.846" r="0.245"/>
	<circle fill-rule="evenodd" clip-rule="evenodd" fill="#999999" cx="152.982" cy="29.367" r="0.736"/>
	<circle fill-rule="evenodd" clip-rule="evenodd" fill="#999999" cx="158.072" cy="29.428" r="0.552"/>
	<circle fill-rule="evenodd" clip-rule="evenodd" fill="#999999" cx="122.433" cy="29.733" r="0.491"/>
	<circle fill-rule="evenodd" clip-rule="evenodd" fill="#999999" cx="104.89" cy="25.194" r="0.736"/>
	<circle fill-rule="evenodd" clip-rule="evenodd" fill="#999999" cx="253.945" cy="23.967" r="0.981"/>
	<circle fill-rule="evenodd" clip-rule="evenodd" fill="#999999" cx="248.732" cy="27.586" r="0.797"/>
	<circle fill-rule="evenodd" clip-rule="evenodd" fill="#999999" cx="230.084" cy="26.359" r="1.166"/>
	<circle fill-rule="evenodd" clip-rule="evenodd" fill="#999999" cx="214.074" cy="27.769" r="1.349"/>
	<circle fill-rule="evenodd" clip-rule="evenodd" fill="#999999" cx="204.505" cy="29.365" r="0.858"/>
	<circle fill-rule="evenodd" clip-rule="evenodd" fill="#999999" cx="240.083" cy="23.966" r="1.84"/>
	<circle fill-rule="evenodd" clip-rule="evenodd" fill="#999999" cx="238.488" cy="12.189" r="2.822"/>
	<circle fill-rule="evenodd" clip-rule="evenodd" fill="#999999" cx="249.038" cy="9.367" r="0.736"/>
	<circle fill-rule="evenodd" clip-rule="evenodd" fill="#999999" cx="253.945" cy="11.453" r="0.858"/>
	<circle fill-rule="evenodd" clip-rule="evenodd" fill="#999999" cx="221.742" cy="10.411" r="0.92"/>
	<circle fill-rule="evenodd" clip-rule="evenodd" fill="#999999" cx="207.204" cy="10.717" r="2.208"/>
	<circle fill-rule="evenodd" clip-rule="evenodd" fill="#999999" cx="216.099" cy="14.091" r="1.288"/>
	<circle fill-rule="evenodd" clip-rule="evenodd" fill="#999999" cx="231.618" cy="8.509" r="0.491"/>
	<circle fill-rule="evenodd" clip-rule="evenodd" fill="#999999" cx="167.487" cy="9.151" r="0.706"/>
	<circle fill-rule="evenodd" clip-rule="evenodd" fill="#999999" cx="160.801" cy="7.985" r="0.644"/>
	<circle fill-rule="evenodd" clip-rule="evenodd" fill="#999999" cx="188.314" cy="9.55" r="1.288"/>
	<circle fill-rule="evenodd" clip-rule="evenodd" fill="#999999" cx="179.97" cy="9.488" r="0.491"/>
</g>
</svg>
